<!-- Generator: Adobe Illustrator 25.2.3, SVG Export Plug-In  -->
<svg version="1.1" xmlns="http://www.w3.org/2000/svg" xmlns:xlink="http://www.w3.org/1999/xlink" x="0px" y="0px"
	 width="1124.7px" height="651.6px" viewBox="0 0 1124.7 651.6" style="overflow:visible;enable-background:new 0 0 1124.7 651.6;"
	 xml:space="preserve">
<style type="text/css">
	.st0{fill:#975227;}
	.st1{fill:#232326;}
</style>
<defs>
</defs>
<g>
	<g>
		<g>
			<rect x="1095.8" y="391" class="st0" width="28.8" height="130.3"/>
			<rect x="1095.8" y="521.3" class="st1" width="28.8" height="130.3"/>
			<rect x="1038.2" y="391" class="st0" width="28.8" height="130.3"/>
			<rect x="1067" y="391" class="st1" width="28.8" height="130.3"/>
			<rect x="1067" y="521.3" class="st0" width="28.8" height="130.3"/>
			<rect x="1038.2" y="521.3" class="st1" width="28.8" height="130.3"/>
			<rect x="980.5" y="391" class="st0" width="28.8" height="130.3"/>
			<rect x="1009.3" y="391" class="st1" width="28.8" height="130.3"/>
			<rect x="1009.3" y="521.3" class="st0" width="28.8" height="130.3"/>
			<rect x="980.5" y="521.3" class="st1" width="28.8" height="130.3"/>
			<rect x="922.8" y="391" class="st0" width="28.8" height="130.3"/>
			<rect x="951.6" y="391" class="st1" width="28.8" height="130.3"/>
			<rect x="951.6" y="521.3" class="st0" width="28.8" height="130.3"/>
			<rect x="922.8" y="521.3" class="st1" width="28.8" height="130.3"/>
			<rect x="865.1" y="391" class="st0" width="28.8" height="130.3"/>
			<rect x="894" y="391" class="st1" width="28.8" height="130.3"/>
			<rect x="894" y="521.3" class="st0" width="28.8" height="130.3"/>
			<rect x="865.1" y="521.3" class="st1" width="28.8" height="130.3"/>
			<rect x="807.5" y="391" class="st0" width="28.8" height="130.3"/>
			<rect x="836.3" y="391" class="st1" width="28.8" height="130.3"/>
			<rect x="836.3" y="521.3" class="st0" width="28.8" height="130.3"/>
			<rect x="807.5" y="521.3" class="st1" width="28.8" height="130.3"/>
			<rect x="749.8" y="391" class="st0" width="28.8" height="130.3"/>
			<rect x="778.6" y="391" class="st1" width="28.8" height="130.3"/>
			<rect x="778.6" y="521.3" class="st0" width="28.8" height="130.3"/>
			<rect x="749.8" y="521.3" class="st1" width="28.8" height="130.3"/>
			<rect x="692.1" y="391" class="st0" width="28.8" height="130.3"/>
			<rect x="720.9" y="391" class="st1" width="28.8" height="130.3"/>
			<rect x="720.9" y="521.3" class="st0" width="28.8" height="130.3"/>
			<rect x="692.1" y="521.3" class="st1" width="28.8" height="130.3"/>
			<rect x="634.4" y="391" class="st0" width="28.8" height="130.3"/>
			<rect x="663.3" y="391" class="st1" width="28.8" height="130.3"/>
			<rect x="663.3" y="521.3" class="st0" width="28.8" height="130.3"/>
			<rect x="634.4" y="521.3" class="st1" width="28.8" height="130.3"/>
			<rect x="576.8" y="391" class="st0" width="28.8" height="130.3"/>
			<rect x="605.6" y="391" class="st1" width="28.8" height="130.3"/>
			<rect x="605.6" y="521.3" class="st0" width="28.8" height="130.3"/>
			<rect x="576.8" y="521.3" class="st1" width="28.8" height="130.3"/>
			<rect x="519.1" y="391" class="st0" width="28.8" height="130.3"/>
			<rect x="547.9" y="391" class="st1" width="28.8" height="130.3"/>
			<rect x="547.9" y="521.3" class="st0" width="28.8" height="130.3"/>
			<rect x="519.1" y="521.3" class="st1" width="28.8" height="130.3"/>
			<rect x="461.4" y="391" class="st0" width="28.8" height="130.3"/>
			<rect x="490.2" y="391" class="st1" width="28.8" height="130.3"/>
			<rect x="490.2" y="521.3" class="st0" width="28.8" height="130.3"/>
			<rect x="461.4" y="521.3" class="st1" width="28.8" height="130.3"/>
			<rect x="403.7" y="391" class="st0" width="28.8" height="130.3"/>
			<rect x="432.6" y="391" class="st1" width="28.8" height="130.3"/>
			<rect x="432.6" y="521.3" class="st0" width="28.8" height="130.3"/>
			<rect x="403.7" y="521.3" class="st1" width="28.8" height="130.3"/>
			<rect x="346.1" y="391" class="st0" width="28.8" height="130.3"/>
			<rect x="374.9" y="391" class="st1" width="28.8" height="130.3"/>
			<rect x="374.9" y="521.3" class="st0" width="28.8" height="130.3"/>
			<rect x="346.1" y="521.3" class="st1" width="28.8" height="130.3"/>
			<rect x="288.4" y="391" class="st0" width="28.8" height="130.3"/>
			<rect x="317.2" y="391" class="st1" width="28.8" height="130.3"/>
			<rect x="317.2" y="521.3" class="st0" width="28.8" height="130.3"/>
			<rect x="288.4" y="521.3" class="st1" width="28.8" height="130.3"/>
			<rect x="230.7" y="391" class="st0" width="28.8" height="130.3"/>
			<rect x="259.5" y="391" class="st1" width="28.8" height="130.3"/>
			<rect x="259.5" y="521.3" class="st0" width="28.8" height="130.3"/>
			<rect x="230.7" y="521.3" class="st1" width="28.8" height="130.3"/>
			<rect x="173" y="391" class="st0" width="28.8" height="130.3"/>
			<rect x="201.9" y="391" class="st1" width="28.8" height="130.3"/>
			<rect x="201.9" y="521.3" class="st0" width="28.8" height="130.3"/>
			<rect x="173" y="521.3" class="st1" width="28.8" height="130.3"/>
			<rect x="115.4" y="391" class="st0" width="28.8" height="130.3"/>
			<rect x="144.2" y="391" class="st1" width="28.8" height="130.3"/>
			<rect x="144.2" y="521.3" class="st0" width="28.8" height="130.3"/>
			<rect x="115.4" y="521.3" class="st1" width="28.8" height="130.3"/>
			<rect x="57.7" y="391" class="st0" width="28.8" height="130.3"/>
			<rect x="86.5" y="391" class="st1" width="28.8" height="130.3"/>
			<rect x="86.5" y="521.3" class="st0" width="28.8" height="130.3"/>
			<rect x="57.7" y="521.3" class="st1" width="28.8" height="130.3"/>
			<rect y="391" class="st0" width="28.8" height="130.3"/>
			<rect x="28.8" y="391" class="st1" width="28.8" height="130.3"/>
			<rect x="28.8" y="521.3" class="st0" width="28.8" height="130.3"/>
			<rect y="521.3" class="st1" width="28.8" height="130.3"/>
		</g>
	</g>
	<g>
		<g>
			<rect x="1095.8" y="130.3" class="st0" width="28.8" height="130.3"/>
			<rect x="1095.8" y="260.7" class="st1" width="28.8" height="130.3"/>
			<rect x="1038.2" y="130.3" class="st0" width="28.8" height="130.3"/>
			<rect x="1067" y="130.3" class="st1" width="28.8" height="130.3"/>
			<rect x="1067" y="260.7" class="st0" width="28.8" height="130.3"/>
			<rect x="1038.2" y="260.7" class="st1" width="28.8" height="130.3"/>
			<rect x="980.5" y="130.3" class="st0" width="28.8" height="130.3"/>
			<rect x="1009.3" y="130.3" class="st1" width="28.8" height="130.3"/>
			<rect x="1009.3" y="260.7" class="st0" width="28.8" height="130.3"/>
			<rect x="980.5" y="260.7" class="st1" width="28.8" height="130.3"/>
			<rect x="922.8" y="130.3" class="st0" width="28.8" height="130.3"/>
			<rect x="951.6" y="130.3" class="st1" width="28.8" height="130.3"/>
			<rect x="951.6" y="260.7" class="st0" width="28.8" height="130.3"/>
			<rect x="922.8" y="260.7" class="st1" width="28.8" height="130.3"/>
			<rect x="865.1" y="130.3" class="st0" width="28.8" height="130.3"/>
			<rect x="894" y="130.3" class="st1" width="28.8" height="130.3"/>
			<rect x="894" y="260.7" class="st0" width="28.8" height="130.3"/>
			<rect x="865.1" y="260.7" class="st1" width="28.8" height="130.3"/>
			<rect x="807.5" y="130.3" class="st0" width="28.8" height="130.3"/>
			<rect x="836.3" y="130.3" class="st1" width="28.8" height="130.3"/>
			<rect x="836.3" y="260.7" class="st0" width="28.8" height="130.3"/>
			<rect x="807.5" y="260.7" class="st1" width="28.8" height="130.3"/>
			<rect x="749.8" y="130.3" class="st0" width="28.8" height="130.3"/>
			<rect x="778.6" y="130.3" class="st1" width="28.8" height="130.3"/>
			<rect x="778.6" y="260.7" class="st0" width="28.8" height="130.3"/>
			<rect x="749.8" y="260.7" class="st1" width="28.8" height="130.3"/>
			<rect x="692.1" y="130.3" class="st0" width="28.8" height="130.3"/>
			<rect x="720.9" y="130.3" class="st1" width="28.8" height="130.3"/>
			<rect x="720.9" y="260.7" class="st0" width="28.8" height="130.3"/>
			<rect x="692.1" y="260.7" class="st1" width="28.8" height="130.3"/>
			<rect x="634.4" y="130.3" class="st0" width="28.8" height="130.3"/>
			<rect x="663.3" y="130.3" class="st1" width="28.8" height="130.3"/>
			<rect x="663.3" y="260.7" class="st0" width="28.8" height="130.3"/>
			<rect x="634.4" y="260.7" class="st1" width="28.8" height="130.3"/>
			<rect x="576.8" y="130.3" class="st0" width="28.8" height="130.3"/>
			<rect x="605.6" y="130.3" class="st1" width="28.8" height="130.3"/>
			<rect x="605.6" y="260.7" class="st0" width="28.8" height="130.3"/>
			<rect x="576.8" y="260.7" class="st1" width="28.8" height="130.3"/>
			<rect x="519.1" y="130.3" class="st0" width="28.8" height="130.3"/>
			<rect x="547.9" y="130.3" class="st1" width="28.8" height="130.3"/>
			<rect x="547.9" y="260.7" class="st0" width="28.8" height="130.3"/>
			<rect x="519.1" y="260.7" class="st1" width="28.8" height="130.3"/>
			<rect x="461.4" y="130.3" class="st0" width="28.8" height="130.3"/>
			<rect x="490.2" y="130.3" class="st1" width="28.8" height="130.3"/>
			<rect x="490.2" y="260.7" class="st0" width="28.8" height="130.3"/>
			<rect x="461.4" y="260.7" class="st1" width="28.8" height="130.3"/>
			<rect x="403.7" y="130.3" class="st0" width="28.8" height="130.3"/>
			<rect x="432.6" y="130.3" class="st1" width="28.8" height="130.3"/>
			<rect x="432.6" y="260.7" class="st0" width="28.8" height="130.3"/>
			<rect x="403.7" y="260.7" class="st1" width="28.8" height="130.3"/>
			<rect x="346.1" y="130.3" class="st0" width="28.8" height="130.3"/>
			<rect x="374.9" y="130.3" class="st1" width="28.8" height="130.3"/>
			<rect x="374.9" y="260.7" class="st0" width="28.8" height="130.3"/>
			<rect x="346.1" y="260.7" class="st1" width="28.8" height="130.3"/>
			<rect x="288.4" y="130.3" class="st0" width="28.8" height="130.3"/>
			<rect x="317.2" y="130.3" class="st1" width="28.8" height="130.3"/>
			<rect x="317.2" y="260.7" class="st0" width="28.8" height="130.3"/>
			<rect x="288.4" y="260.7" class="st1" width="28.8" height="130.3"/>
			<rect x="230.7" y="130.3" class="st0" width="28.8" height="130.3"/>
			<rect x="259.5" y="130.3" class="st1" width="28.8" height="130.3"/>
			<rect x="259.5" y="260.7" class="st0" width="28.8" height="130.3"/>
			<rect x="230.7" y="260.7" class="st1" width="28.8" height="130.3"/>
			<rect x="173" y="130.3" class="st0" width="28.8" height="130.3"/>
			<rect x="201.9" y="130.3" class="st1" width="28.8" height="130.3"/>
			<rect x="201.9" y="260.7" class="st0" width="28.8" height="130.3"/>
			<rect x="173" y="260.7" class="st1" width="28.8" height="130.3"/>
			<rect x="115.4" y="130.3" class="st0" width="28.8" height="130.3"/>
			<rect x="144.2" y="130.3" class="st1" width="28.8" height="130.3"/>
			<rect x="144.2" y="260.7" class="st0" width="28.8" height="130.3"/>
			<rect x="115.4" y="260.7" class="st1" width="28.8" height="130.3"/>
			<rect x="57.7" y="130.3" class="st0" width="28.8" height="130.3"/>
			<rect x="86.5" y="130.3" class="st1" width="28.8" height="130.3"/>
			<rect x="86.5" y="260.7" class="st0" width="28.8" height="130.3"/>
			<rect x="57.7" y="260.7" class="st1" width="28.8" height="130.3"/>
			<rect y="130.3" class="st0" width="28.8" height="130.3"/>
			<rect x="28.8" y="130.3" class="st1" width="28.8" height="130.3"/>
			<rect x="28.8" y="260.7" class="st0" width="28.8" height="130.3"/>
			<rect y="260.7" class="st1" width="28.8" height="130.3"/>
		</g>
	</g>
	<g>
		<g>
			<rect x="1095.8" class="st1" width="28.8" height="130.3"/>
			<rect x="1067" class="st0" width="28.8" height="130.3"/>
			<rect x="1038.2" class="st1" width="28.8" height="130.3"/>
			<rect x="1009.3" class="st0" width="28.8" height="130.3"/>
			<rect x="980.5" class="st1" width="28.8" height="130.3"/>
			<rect x="951.6" class="st0" width="28.8" height="130.3"/>
			<rect x="922.8" class="st1" width="28.8" height="130.3"/>
			<rect x="894" class="st0" width="28.8" height="130.3"/>
			<rect x="865.1" class="st1" width="28.8" height="130.3"/>
			<rect x="836.3" class="st0" width="28.8" height="130.3"/>
			<rect x="807.5" class="st1" width="28.8" height="130.3"/>
			<rect x="778.6" class="st0" width="28.8" height="130.3"/>
			<rect x="749.8" class="st1" width="28.8" height="130.3"/>
			<rect x="720.9" class="st0" width="28.8" height="130.3"/>
			<rect x="692.1" class="st1" width="28.8" height="130.3"/>
			<rect x="663.3" class="st0" width="28.8" height="130.3"/>
			<rect x="634.4" class="st1" width="28.8" height="130.3"/>
			<rect x="605.6" class="st0" width="28.8" height="130.3"/>
			<rect x="576.8" class="st1" width="28.8" height="130.3"/>
			<rect x="547.9" class="st0" width="28.8" height="130.3"/>
			<rect x="519.1" class="st1" width="28.8" height="130.3"/>
			<rect x="490.2" class="st0" width="28.8" height="130.3"/>
			<rect x="461.4" class="st1" width="28.8" height="130.3"/>
			<rect x="432.6" class="st0" width="28.8" height="130.3"/>
			<rect x="403.7" class="st1" width="28.8" height="130.3"/>
			<rect x="374.9" class="st0" width="28.8" height="130.3"/>
			<rect x="346.1" class="st1" width="28.8" height="130.3"/>
			<rect x="317.2" class="st0" width="28.8" height="130.3"/>
			<rect x="288.4" class="st1" width="28.8" height="130.3"/>
			<rect x="259.5" class="st0" width="28.8" height="130.3"/>
			<rect x="230.7" class="st1" width="28.8" height="130.3"/>
			<rect x="201.9" class="st0" width="28.8" height="130.3"/>
			<rect x="173" class="st1" width="28.8" height="130.3"/>
			<rect x="144.2" class="st0" width="28.8" height="130.3"/>
			<rect x="115.4" class="st1" width="28.8" height="130.3"/>
			<rect x="86.5" class="st0" width="28.8" height="130.3"/>
			<rect x="57.7" class="st1" width="28.8" height="130.3"/>
			<rect x="28.8" class="st0" width="28.8" height="130.3"/>
			<rect class="st1" width="28.8" height="130.3"/>
		</g>
	</g>
</g>
</svg>
