<!-- Generator: Adobe Illustrator 25.2.3, SVG Export Plug-In  -->
<svg version="1.1" xmlns="http://www.w3.org/2000/svg" xmlns:xlink="http://www.w3.org/1999/xlink" x="0px" y="0px" width="343.9px"
	 height="73.8px" viewBox="0 0 343.9 73.8" style="overflow:visible;enable-background:new 0 0 343.9 73.8;" xml:space="preserve">
<style type="text/css">
	.st0{fill:#4E4261;}
</style>
<defs>
</defs>
<g>
	<path class="st0" d="M172.3,0.3c-3.5,0-6.4,2.8-6.4,6.3l0,12.3c0,3.5,2.9,6.3,6.4,6.3c3.5,0,6.4-2.8,6.4-6.3V6.5
		C178.7,3.1,175.8,0.3,172.3,0.3"/>
	<path class="st0" d="M182.6,42.6c-1.8,3-0.7,6.8,2.3,8.6l10.9,6.2c3.1,1.7,7,0.7,8.7-2.3c1.8-3,0.7-6.8-2.3-8.6l-10.9-6.2
		C188.2,38.6,184.3,39.6,182.6,42.6"/>
	<path class="st0" d="M195.8,16.2l-10.9,6.2c-3.1,1.7-4.1,5.6-2.3,8.6c1.8,3,5.7,4,8.7,2.3l10.9-6.2c3.1-1.7,4.1-5.6,2.3-8.6
		C202.8,15.5,198.9,14.5,195.8,16.2"/>
	<path class="st0" d="M113.1,73.5V57.4h6.2v-2.2h-14.9v2.2h6.2v16.1H113.1z M97.2,62c-0.2,0.5-0.4,0.9-0.8,1.2
		c-0.4,0.4-0.9,0.6-1.4,0.8c-0.6,0.1-1.2,0.2-1.9,0.2h-2.2v-6.9h2.4c0.7,0,1.3,0,1.7,0.1c0.5,0.1,0.9,0.3,1.2,0.5
		c0.4,0.3,0.7,0.6,0.9,1c0.2,0.4,0.3,0.9,0.3,1.4C97.4,61,97.3,61.6,97.2,62 M96.2,65.5c1.2-0.4,2.1-1.1,2.8-2c0.7-0.9,1-2,1-3.3
		c0-1-0.2-1.8-0.6-2.4c-0.4-0.6-0.9-1.2-1.5-1.6c-0.6-0.4-1.3-0.7-2.1-0.8c-0.7-0.1-1.6-0.2-2.7-0.2h-4.8v18.2h2.5v-7.2h2.8l5.9,7.2
		h3.2L96.2,65.5z M78.9,69.8c-1,1.3-2.4,1.9-4.1,1.9c-1.7,0-3.1-0.6-4.1-1.9c-1-1.3-1.5-3.1-1.5-5.5c0-1.2,0.1-2.2,0.4-3.2
		c0.3-0.9,0.6-1.7,1.1-2.3c0.5-0.6,1.1-1.1,1.8-1.4c0.7-0.3,1.5-0.5,2.4-0.5c0.9,0,1.6,0.2,2.3,0.5c0.7,0.3,1.3,0.8,1.8,1.4
		c0.5,0.6,0.9,1.4,1.1,2.3c0.3,0.9,0.4,2,0.4,3.2C80.4,66.8,79.9,68.6,78.9,69.8 M78.2,55.5c-1-0.4-2.2-0.6-3.4-0.6
		c-1.2,0-2.4,0.2-3.4,0.6c-1,0.4-1.9,1-2.6,1.8c-0.7,0.8-1.3,1.8-1.7,3c-0.4,1.2-0.6,2.5-0.6,4c0,1.5,0.2,2.8,0.6,4
		c0.4,1.2,0.9,2.2,1.6,3c0.7,0.8,1.6,1.4,2.6,1.9c1,0.4,2.1,0.6,3.4,0.6c1.2,0,2.3-0.2,3.3-0.6c1-0.4,1.9-1,2.7-1.9
		c0.7-0.8,1.3-1.8,1.7-3c0.4-1.2,0.6-2.5,0.6-4c0-1.5-0.2-2.9-0.6-4c-0.4-1.2-0.9-2.2-1.6-3C80,56.6,79.2,56,78.2,55.5 M59.7,62.3
		c-0.2,0.4-0.4,0.8-0.8,1.2c-0.4,0.4-0.9,0.7-1.5,0.8c-0.6,0.2-1.4,0.2-2.4,0.2h-1.7v-7.3h2c0.8,0,1.4,0.1,1.9,0.2
		c0.5,0.1,1,0.3,1.4,0.5c0.4,0.3,0.8,0.7,1,1.1c0.2,0.5,0.3,1,0.3,1.6C60,61.4,59.9,61.9,59.7,62.3 M62,58.2
		c-0.4-0.7-0.9-1.3-1.6-1.8c-0.6-0.4-1.3-0.7-2-0.9c-0.8-0.2-1.7-0.3-2.8-0.3h-4.7v18.2h2.5v-6.8h2.1c1.3,0,2.4-0.2,3.3-0.5
		c0.9-0.3,1.6-0.8,2.3-1.4c0.5-0.5,0.9-1.1,1.2-1.8c0.3-0.7,0.4-1.5,0.4-2.2C62.5,59.7,62.3,58.9,62,58.2 M41.1,62
		c-0.2,0.5-0.4,0.9-0.8,1.2c-0.4,0.4-0.9,0.6-1.4,0.8c-0.6,0.1-1.2,0.2-1.9,0.2h-2.2v-6.9h2.4c0.7,0,1.3,0,1.7,0.1
		c0.5,0.1,0.9,0.3,1.2,0.5c0.4,0.3,0.7,0.6,0.9,1c0.2,0.4,0.3,0.9,0.3,1.4C41.3,61,41.2,61.6,41.1,62 M40,65.5
		c1.2-0.4,2.1-1.1,2.8-2c0.7-0.9,1-2,1-3.3c0-1-0.2-1.8-0.6-2.4c-0.4-0.6-0.9-1.2-1.5-1.6c-0.6-0.4-1.3-0.7-2.1-0.8
		c-0.7-0.1-1.6-0.2-2.7-0.2h-4.8v18.2h2.5v-7.2h2.8l5.9,7.2h3.2L40,65.5z M26.5,71.6h-2.4V57.1h2.4v-1.9h-7.2v1.9h2.4v14.5h-2.4v1.9
		h7.2V71.6z M4.9,66.3l2.9-8.6l2.9,8.6H4.9z M2.5,73.5l1.7-5.1h7.1l1.7,5.1h2.6L9.3,55.3h-3L0,73.5H2.5z"/>
	<path class="st0" d="M117.4,27.8h-2.3v14.4l-7.5-14.4h-3.5V46h2.3V30.3l8.2,15.7h2.8V27.8z M95.5,44.1h-2.4V29.7h2.4v-1.9h-7.2v1.9
		h2.4v14.5h-2.4V46h7.2V44.1z M78.3,34.9c-0.2,0.4-0.4,0.8-0.8,1.2c-0.4,0.4-0.9,0.7-1.5,0.9c-0.6,0.2-1.4,0.2-2.4,0.2h-1.7v-7.3h2
		c0.8,0,1.4,0.1,1.9,0.2c0.5,0.1,1,0.3,1.4,0.5c0.4,0.3,0.8,0.7,1,1.1c0.2,0.5,0.3,1,0.3,1.6C78.5,33.9,78.4,34.4,78.3,34.9
		 M80.5,30.7c-0.4-0.7-0.9-1.3-1.6-1.8c-0.6-0.4-1.3-0.7-2-0.9c-0.8-0.2-1.7-0.3-2.8-0.3h-4.7V46h2.5v-6.8h2.1
		c1.3,0,2.4-0.2,3.3-0.5c0.9-0.3,1.6-0.8,2.3-1.4c0.5-0.5,0.9-1.1,1.2-1.8c0.3-0.7,0.4-1.5,0.4-2.2C81.1,32.3,80.9,31.4,80.5,30.7
		 M57,42.4c-1,1.3-2.4,1.9-4.1,1.9c-1.7,0-3.1-0.6-4.1-1.9c-1-1.3-1.5-3.1-1.5-5.5c0-1.2,0.1-2.2,0.4-3.2c0.3-0.9,0.6-1.7,1.1-2.3
		c0.5-0.6,1.1-1.1,1.8-1.4c0.7-0.3,1.5-0.5,2.4-0.5c0.9,0,1.6,0.2,2.3,0.5c0.7,0.3,1.3,0.8,1.8,1.4c0.5,0.6,0.9,1.4,1.1,2.3
		c0.3,0.9,0.4,2,0.4,3.2C58.5,39.3,58,41.1,57,42.4 M56.3,28.1c-1-0.4-2.2-0.6-3.4-0.6c-1.2,0-2.4,0.2-3.4,0.6c-1,0.4-1.9,1-2.6,1.8
		c-0.7,0.8-1.3,1.8-1.7,3c-0.4,1.2-0.6,2.5-0.6,4c0,1.5,0.2,2.8,0.6,4c0.4,1.2,0.9,2.2,1.6,3c0.7,0.8,1.6,1.4,2.6,1.9
		c1,0.4,2.1,0.6,3.4,0.6c1.2,0,2.3-0.2,3.3-0.6c1-0.4,1.9-1,2.7-1.9c0.7-0.8,1.3-1.8,1.7-3c0.4-1.2,0.6-2.5,0.6-4
		c0-1.5-0.2-2.9-0.6-4c-0.4-1.2-0.9-2.2-1.6-3C58.2,29.1,57.3,28.5,56.3,28.1 M36.4,27.8h-2.5v7.1h-8.5v-7.1h-2.5V46h2.5v-8.9h8.5
		V46h2.5V27.8z M11.1,46.2c0.5-0.1,1-0.2,1.5-0.4c0.5-0.2,1-0.3,1.3-0.5c0.4-0.2,0.7-0.3,1.2-0.5v-2.9h-0.2
		c-0.2,0.2-0.5,0.4-0.8,0.7c-0.3,0.3-0.7,0.5-1.2,0.8c-0.5,0.3-1,0.5-1.6,0.6c-0.6,0.2-1.3,0.3-2,0.3c-0.8,0-1.5-0.2-2.2-0.5
		c-0.7-0.3-1.3-0.8-1.8-1.4c-0.5-0.6-1-1.4-1.3-2.3c-0.3-0.9-0.5-2-0.5-3.2c0-1.2,0.1-2.2,0.4-3.2c0.3-0.9,0.7-1.7,1.2-2.3
		C5.7,30.8,6.3,30.3,7,30c0.7-0.3,1.5-0.5,2.2-0.5c0.7,0,1.4,0.1,1.9,0.2c0.6,0.2,1.1,0.4,1.5,0.6c0.5,0.3,0.9,0.5,1.2,0.8
		c0.3,0.3,0.6,0.5,0.8,0.7H15V29c-0.4-0.2-0.8-0.4-1.2-0.6c-0.4-0.2-0.8-0.3-1.2-0.5c-0.5-0.1-1-0.3-1.5-0.3
		c-0.5-0.1-1.1-0.1-1.8-0.1c-1.3,0-2.4,0.2-3.4,0.6c-1,0.4-1.9,1.1-2.6,1.9c-0.8,0.8-1.3,1.8-1.7,3c-0.4,1.1-0.6,2.5-0.6,4
		c0,1.5,0.2,2.9,0.6,4.1c0.4,1.2,1,2.2,1.7,3c0.7,0.8,1.6,1.4,2.6,1.8c1,0.4,2.1,0.6,3.3,0.6C10,46.3,10.6,46.3,11.1,46.2"/>
	<path class="st0" d="M116.5,0.3l-3.7,15.3l-3.8-15.3h-2.5l-3.7,15.1L99.1,0.3h-2.5l4.8,18.2h2.7l3.7-15.1l3.8,15.1h2.8L119,0.3
		H116.5z M83.5,11.4l2.9-8.6l2.9,8.6H83.5z M81.1,18.5l1.7-5.1h7.1l1.7,5.1h2.6L88,0.3h-3l-6.3,18.2H81.1z M71.9,18.4
		c0.8-0.3,1.4-0.7,2-1.2c0.5-0.5,0.9-1.1,1.2-1.8c0.3-0.7,0.4-1.4,0.4-2.1c0-1.1-0.3-2.1-0.9-2.9c-0.6-0.8-1.5-1.4-2.8-1.7
		c-0.5-0.1-1.1-0.3-1.9-0.5c-0.8-0.2-1.4-0.3-1.9-0.5c-0.8-0.2-1.4-0.5-1.8-1c-0.4-0.5-0.6-1.1-0.6-1.8c0-0.9,0.4-1.5,1.1-2.1
		c0.7-0.5,1.6-0.8,2.8-0.8c1,0,2,0.2,2.9,0.6c0.9,0.4,1.7,0.9,2.3,1.4h0.2V1.2c-0.8-0.4-1.6-0.7-2.6-0.9C71.3,0.1,70.4,0,69.3,0
		c-1.8,0-3.3,0.5-4.5,1.5c-1.2,1-1.8,2.2-1.8,3.7c0,0.7,0.1,1.3,0.3,1.9c0.2,0.5,0.5,1,0.9,1.4c0.4,0.4,0.8,0.7,1.3,1
		c0.5,0.3,1.1,0.5,1.7,0.6c0.7,0.2,1.3,0.3,1.8,0.4c0.5,0.1,1,0.2,1.6,0.4c0.8,0.2,1.4,0.6,1.7,1c0.4,0.5,0.5,1,0.5,1.8
		c0,0.9-0.3,1.6-1,2.2c-0.7,0.6-1.7,0.8-3.1,0.8c-1,0-1.9-0.2-3-0.6c-1-0.4-2-1-2.8-1.7h-0.2v3c0.8,0.4,1.7,0.7,2.7,1
		c0.9,0.3,2.1,0.4,3.4,0.4C70.2,18.9,71.1,18.7,71.9,18.4 M54.1,7.1c-0.2,0.5-0.4,0.9-0.8,1.2c-0.4,0.4-0.9,0.6-1.4,0.8
		c-0.6,0.1-1.2,0.2-1.9,0.2h-2.2V2.4h2.4c0.7,0,1.3,0,1.7,0.1c0.5,0.1,0.9,0.3,1.2,0.5c0.4,0.3,0.7,0.6,0.9,1
		c0.2,0.4,0.3,0.9,0.3,1.4C54.3,6.1,54.2,6.6,54.1,7.1 M53,10.6c1.2-0.4,2.1-1.1,2.8-2c0.7-0.9,1-2,1-3.3c0-1-0.2-1.8-0.6-2.4
		c-0.4-0.6-0.9-1.2-1.5-1.6c-0.6-0.4-1.3-0.7-2.1-0.8c-0.7-0.1-1.6-0.2-2.7-0.2h-4.8v18.2h2.5v-7.2h2.8l5.9,7.2h3.2L53,10.6z
		 M30.1,11.4l2.9-8.6l2.9,8.6H30.1z M27.7,18.5l1.7-5.1h7.1l1.7,5.1h2.6L34.5,0.3h-3l-6.3,18.2H27.7z M20.4,0.3l-3.7,15.3L13,0.3
		h-2.5L6.7,15.5L3,0.3H0.4l4.8,18.2h2.7l3.7-15.1l3.8,15.1h2.8l4.7-18.2H20.4z"/>
	<polygon class="st0" points="236.5,18.7 225.6,18.7 225.6,0.4 228.1,0.4 228.1,16.5 236.5,16.5 	"/>
	<path class="st0" d="M251.5,2.5c0.7,0.8,1.3,1.8,1.7,3c0.4,1.2,0.6,2.5,0.6,4.1c0,1.5-0.2,2.8-0.6,4c-0.4,1.2-0.9,2.2-1.7,3
		c-0.8,0.9-1.7,1.5-2.7,1.9c-1,0.4-2.1,0.6-3.4,0.6c-1.3,0-2.4-0.2-3.4-0.6c-1-0.4-1.9-1-2.6-1.9c-0.7-0.8-1.3-1.8-1.7-3
		c-0.4-1.2-0.6-2.5-0.6-4c0-1.5,0.2-2.9,0.6-4.1c0.4-1.2,0.9-2.2,1.7-3c0.7-0.8,1.6-1.4,2.6-1.9c1-0.4,2.2-0.6,3.4-0.6
		c1.3,0,2.4,0.2,3.4,0.7C250,1.1,250.8,1.7,251.5,2.5 M251.2,9.6c0-1.2-0.1-2.3-0.4-3.2c-0.3-0.9-0.6-1.7-1.1-2.3
		c-0.5-0.6-1.1-1.1-1.8-1.4c-0.7-0.3-1.5-0.5-2.4-0.5c-0.9,0-1.7,0.2-2.4,0.5c-0.7,0.3-1.3,0.8-1.8,1.4c-0.5,0.6-0.9,1.4-1.1,2.3
		c-0.3,0.9-0.4,2-0.4,3.2c0,2.4,0.5,4.2,1.5,5.5c1,1.3,2.4,1.9,4.1,1.9c1.7,0,3.1-0.6,4.1-1.9C250.7,13.8,251.2,12,251.2,9.6"/>
	<polygon class="st0" points="260.4,18.7 260.4,2.6 254.1,2.6 254.1,0.4 269.1,0.4 269.1,2.6 262.9,2.6 262.9,18.7 	"/>
	<polygon class="st0" points="284.5,18.7 281.7,18.7 273.4,2.9 273.4,18.7 271.1,18.7 271.1,0.4 274.6,0.4 282.2,14.9 282.2,0.4 
		284.5,0.4 	"/>
	<polygon class="st0" points="294.9,18.7 287.6,18.7 287.6,16.8 290,16.8 290,2.3 287.6,2.3 287.6,0.4 294.9,0.4 294.9,2.3 
		292.5,2.3 292.5,16.8 294.9,16.8 	"/>
	<path class="st0" d="M303.3,19c-1.4,0-2.5-0.1-3.5-0.4c-1-0.3-1.8-0.6-2.7-1v-3h0.2c0.8,0.8,1.7,1.3,2.8,1.8c1,0.4,2,0.6,3,0.6
		c1.4,0,2.4-0.3,3.1-0.8c0.7-0.6,1.1-1.3,1.1-2.2c0-0.7-0.2-1.3-0.6-1.8c-0.4-0.5-1-0.8-1.8-1c-0.6-0.2-1.1-0.3-1.6-0.4
		c-0.5-0.1-1.1-0.2-1.8-0.4c-0.6-0.2-1.2-0.4-1.7-0.6c-0.5-0.3-1-0.6-1.4-1c-0.4-0.4-0.7-0.9-0.9-1.4c-0.2-0.5-0.3-1.2-0.3-1.9
		c0-1.5,0.6-2.7,1.8-3.7c1.2-1,2.7-1.5,4.5-1.5c1,0,2,0.1,3,0.3c0.9,0.2,1.8,0.5,2.6,0.9v2.9h-0.2c-0.6-0.5-1.4-1-2.3-1.4
		c-0.9-0.4-1.9-0.6-2.9-0.6c-1.2,0-2.1,0.3-2.8,0.8c-0.7,0.5-1.1,1.2-1.1,2.1c0,0.8,0.2,1.4,0.6,1.9c0.4,0.5,1,0.8,1.8,1
		c0.5,0.1,1.2,0.3,1.9,0.5c0.8,0.2,1.4,0.3,1.9,0.5c1.3,0.4,2.2,1,2.8,1.7c0.6,0.8,0.9,1.7,0.9,2.9c0,0.7-0.1,1.4-0.4,2.1
		c-0.3,0.7-0.7,1.3-1.2,1.8c-0.6,0.5-1.3,0.9-2,1.2C305.4,18.9,304.4,19,303.3,19"/>
	<polygon class="st0" points="326.1,18.7 322.9,18.7 316.1,10.2 315,11.4 315,18.7 312.5,18.7 312.5,0.4 315,0.4 315,8.8 322.6,0.4 
		325.7,0.4 317.9,8.6 	"/>
	<path class="st0" d="M340.7,2.5c0.7,0.8,1.3,1.8,1.7,3c0.4,1.2,0.6,2.5,0.6,4.1c0,1.5-0.2,2.8-0.6,4c-0.4,1.2-0.9,2.2-1.7,3
		c-0.8,0.9-1.7,1.5-2.7,1.9c-1,0.4-2.1,0.6-3.4,0.6c-1.3,0-2.4-0.2-3.4-0.6c-1-0.4-1.9-1-2.6-1.9c-0.7-0.8-1.3-1.8-1.7-3
		c-0.4-1.2-0.6-2.5-0.6-4c0-1.5,0.2-2.9,0.6-4.1c0.4-1.2,0.9-2.2,1.7-3c0.7-0.8,1.6-1.4,2.6-1.9c1-0.4,2.2-0.6,3.4-0.6
		c1.3,0,2.4,0.2,3.4,0.7C339.1,1.1,340,1.7,340.7,2.5 M340.4,9.6c0-1.2-0.1-2.3-0.4-3.2c-0.3-0.9-0.6-1.7-1.1-2.3
		c-0.5-0.6-1.1-1.1-1.8-1.4c-0.7-0.3-1.5-0.5-2.4-0.5c-0.9,0-1.7,0.2-2.4,0.5c-0.7,0.3-1.3,0.8-1.8,1.4c-0.5,0.6-0.9,1.4-1.1,2.3
		c-0.3,0.9-0.4,2-0.4,3.2c0,2.4,0.5,4.2,1.5,5.5c1,1.3,2.4,1.9,4.1,1.9c1.7,0,3.1-0.6,4.1-1.9C339.8,13.8,340.4,12,340.4,9.6"/>
	<path class="st0" d="M232.9,49.3c-1.2,0-2.3-0.2-3.4-0.6c-1-0.4-1.9-1-2.7-1.8c-0.7-0.8-1.3-1.8-1.7-3c-0.4-1.2-0.6-2.6-0.6-4.1
		c0-1.5,0.2-2.9,0.6-4c0.4-1.1,1-2.1,1.7-3c0.7-0.8,1.6-1.4,2.6-1.9c1-0.4,2.2-0.6,3.4-0.6c0.6,0,1.2,0,1.8,0.1
		c0.5,0.1,1.1,0.2,1.5,0.3c0.4,0.1,0.8,0.3,1.2,0.5c0.4,0.2,0.8,0.4,1.2,0.6v2.9h-0.2c-0.2-0.2-0.5-0.4-0.8-0.7
		c-0.3-0.3-0.8-0.6-1.3-0.8c-0.5-0.3-1-0.5-1.6-0.6c-0.6-0.2-1.2-0.2-1.9-0.2c-0.8,0-1.5,0.2-2.3,0.5c-0.7,0.3-1.3,0.8-1.9,1.4
		c-0.5,0.6-0.9,1.4-1.2,2.3c-0.3,0.9-0.4,2-0.4,3.2c0,1.3,0.2,2.3,0.5,3.2c0.3,0.9,0.7,1.7,1.3,2.3c0.5,0.6,1.1,1.1,1.8,1.4
		c0.7,0.3,1.4,0.5,2.2,0.5c0.7,0,1.4-0.1,2-0.3c0.6-0.2,1.2-0.4,1.6-0.7c0.5-0.3,0.9-0.5,1.2-0.8c0.3-0.3,0.6-0.5,0.8-0.7h0.2v2.9
		c-0.4,0.2-0.8,0.4-1.2,0.5c-0.4,0.2-0.8,0.3-1.3,0.5c-0.5,0.2-1,0.3-1.5,0.4C234.3,49.2,233.7,49.3,232.9,49.3"/>
	<polygon class="st0" points="256.8,48.9 254.3,48.9 254.3,40 245.7,40 245.7,48.9 243.2,48.9 243.2,30.6 245.7,30.6 245.7,37.8 
		254.3,37.8 254.3,30.6 256.8,30.6 	"/>
	<path class="st0" d="M275.9,32.7c0.7,0.8,1.3,1.8,1.7,3c0.4,1.2,0.6,2.5,0.6,4.1c0,1.5-0.2,2.8-0.6,4c-0.4,1.2-0.9,2.2-1.7,3
		c-0.8,0.9-1.6,1.5-2.7,1.9c-1,0.4-2.1,0.6-3.4,0.6c-1.3,0-2.4-0.2-3.4-0.6c-1-0.4-1.9-1-2.6-1.9c-0.7-0.8-1.3-1.8-1.7-3
		c-0.4-1.2-0.6-2.5-0.6-4c0-1.5,0.2-2.9,0.6-4.1c0.4-1.2,0.9-2.2,1.7-3c0.7-0.8,1.6-1.4,2.6-1.9c1-0.4,2.2-0.6,3.4-0.6
		c1.3,0,2.4,0.2,3.4,0.7C274.3,31.3,275.2,31.9,275.9,32.7 M275.5,39.8c0-1.2-0.1-2.3-0.4-3.2c-0.3-0.9-0.6-1.7-1.1-2.3
		c-0.5-0.6-1.1-1.1-1.8-1.4c-0.7-0.3-1.5-0.5-2.4-0.5c-0.9,0-1.7,0.2-2.4,0.5c-0.7,0.3-1.3,0.8-1.8,1.4c-0.5,0.6-0.9,1.4-1.1,2.3
		c-0.3,0.9-0.4,2-0.4,3.2c0,2.4,0.5,4.2,1.5,5.5c1,1.3,2.4,1.9,4.1,1.9c1.7,0,3.1-0.6,4.1-1.9C275,44,275.5,42.2,275.5,39.8"/>
	<path class="st0" d="M294.8,36.1c0,0.8-0.1,1.5-0.4,2.3c-0.3,0.7-0.7,1.3-1.2,1.8c-0.6,0.6-1.4,1.1-2.3,1.4c-0.9,0.3-2,0.5-3.3,0.5
		h-2.1v6.8H283V30.6h4.7c1.1,0,2,0.1,2.8,0.3c0.8,0.2,1.5,0.5,2.1,0.9c0.7,0.5,1.2,1.1,1.6,1.8C294.6,34.3,294.8,35.1,294.8,36.1
		 M292.2,36.2c0-0.6-0.1-1.2-0.3-1.6c-0.2-0.5-0.6-0.8-1-1.1c-0.4-0.3-0.9-0.4-1.4-0.5c-0.5-0.1-1.2-0.2-2-0.2h-2.1V40h1.7
		c1,0,1.8-0.1,2.4-0.2c0.6-0.2,1.1-0.4,1.5-0.9c0.4-0.4,0.6-0.8,0.8-1.2C292.1,37.3,292.2,36.8,292.2,36.2"/>
	<polygon class="st0" points="305.8,48.9 298.5,48.9 298.5,47.1 300.9,47.1 300.9,32.5 298.5,32.5 298.5,30.6 305.8,30.6 
		305.8,32.5 303.4,32.5 303.4,47.1 305.8,47.1 	"/>
	<polygon class="st0" points="324.3,48.9 321.6,48.9 313.3,33.1 313.3,48.9 311,48.9 311,30.6 314.5,30.6 322,45.1 322,30.6 
		324.3,30.6 	"/>
	<polygon class="st0" points="242.4,58.6 238.5,73.6 236.3,73.6 233.2,61.2 230.1,73.6 227.9,73.6 224,58.6 226.1,58.6 229.2,71 
		232.2,58.6 234.3,58.6 237.3,71.2 240.4,58.6 	"/>
	<path class="st0" d="M243.4,73.6l5.1-14.9h2.5l5.1,14.9h-2.1l-1.4-4.2h-5.8l-1.4,4.2H243.4z M252.1,67.7l-2.4-7l-2.3,7H252.1z"/>
	<path class="st0" d="M270.8,73.6h-2.6l-4.8-5.9H261v5.9h-2V58.6h3.9c0.9,0,1.6,0,2.2,0.1c0.6,0.1,1.2,0.3,1.7,0.7
		c0.5,0.3,1,0.8,1.3,1.3c0.3,0.5,0.5,1.2,0.5,2c0,1.1-0.3,2-0.8,2.7c-0.6,0.7-1.3,1.3-2.3,1.6L270.8,73.6z M266.4,62.8
		c0-0.4-0.1-0.8-0.2-1.2c-0.2-0.3-0.4-0.6-0.7-0.8c-0.3-0.2-0.6-0.3-1-0.4c-0.4-0.1-0.9-0.1-1.4-0.1h-2V66h1.8
		c0.6,0,1.1-0.1,1.6-0.2c0.5-0.1,0.9-0.3,1.2-0.6c0.3-0.3,0.5-0.6,0.6-1C266.4,63.8,266.4,63.4,266.4,62.8"/>
	<path class="st0" d="M277.6,73.8c-1.1,0-2-0.1-2.8-0.3c-0.8-0.2-1.5-0.5-2.2-0.8v-2.5h0.1c0.7,0.6,1.4,1.1,2.3,1.4
		c0.8,0.3,1.7,0.5,2.4,0.5c1.1,0,2-0.2,2.5-0.7c0.6-0.5,0.9-1.1,0.9-1.8c0-0.6-0.1-1.1-0.4-1.5c-0.3-0.4-0.8-0.7-1.4-0.8
		c-0.5-0.1-0.9-0.2-1.3-0.3c-0.4-0.1-0.9-0.2-1.5-0.4c-0.5-0.1-1-0.3-1.4-0.5c-0.4-0.2-0.8-0.5-1.1-0.8c-0.3-0.3-0.6-0.7-0.7-1.2
		c-0.2-0.4-0.3-1-0.3-1.5c0-1.2,0.5-2.2,1.4-3c1-0.8,2.2-1.2,3.7-1.2c0.9,0,1.7,0.1,2.4,0.3c0.8,0.2,1.5,0.4,2.1,0.7v2.4h-0.2
		c-0.5-0.4-1.1-0.8-1.9-1.1c-0.8-0.3-1.6-0.5-2.4-0.5c-0.9,0-1.7,0.2-2.3,0.6c-0.6,0.4-0.9,1-0.9,1.7c0,0.6,0.2,1.1,0.5,1.5
		c0.3,0.4,0.8,0.6,1.5,0.8c0.4,0.1,1,0.2,1.6,0.4c0.6,0.1,1.1,0.3,1.5,0.4c1,0.3,1.8,0.8,2.3,1.4c0.5,0.6,0.7,1.4,0.7,2.3
		c0,0.6-0.1,1.2-0.4,1.7c-0.2,0.6-0.6,1-1,1.4c-0.5,0.4-1,0.8-1.7,1C279.3,73.7,278.6,73.8,277.6,73.8"/>
	<polygon class="st0" points="296.1,73.6 285.5,73.6 285.5,71.7 293.6,60.4 285.9,60.4 285.9,58.6 295.9,58.6 295.9,60.4 
		287.7,71.8 296.1,71.8 	"/>
	<path class="st0" d="M297.9,73.6l5.1-14.9h2.5l5.1,14.9h-2.1l-1.4-4.2h-5.8l-1.4,4.2H297.9z M306.5,67.7l-2.4-7l-2.3,7H306.5z"/>
	<polygon class="st0" points="330,58.6 326.2,73.6 323.9,73.6 320.8,61.2 317.8,73.6 315.6,73.6 311.7,58.6 313.8,58.6 316.8,71 
		319.9,58.6 321.9,58.6 325,71.2 328.1,58.6 	"/>
	<path class="st0" d="M331.1,73.6l5.1-14.9h2.5l5.1,14.9h-2.1l-1.4-4.2h-5.8l-1.4,4.2H331.1z M339.8,67.7l-2.4-7l-2.3,7H339.8z"/>
	<path class="st0" d="M328.2,48.9l6.3-18.3h3.1l6.3,18.3h-2.6l-1.7-5.1h-7.1l-1.7,5.1H328.2z M338.9,41.7l-2.9-8.6l-2.9,8.6H338.9z"
		/>
	<path class="st0" d="M171.5,38.8c0,0.5,0.5,10.7,0.5,10.7l-1.3,0.8l-1.6-7.2l-1.3-2.3c0,0-1.7,1-3.5,2c-1.8,1-3.1,1.3-3.1,1.3
		l-0.6,3.6l-1,0.6l-0.6-3.6c-0.1,0-0.3,0-0.4-0.2c-0.1-0.1-0.1-0.3,0-0.4l-2.9-2.3l1-0.6l3.5,1.3c0,0,0.9-1,2.6-2c1.8-1,3.5-2,3.5-2
		l-1.3-2.3l-5.6-5l1.3-0.8c0,0,8.8,5.5,9.3,5.8c2.8-1.6,5.2-3.1,6-1.7C176.9,36,174.3,37.2,171.5,38.8 M175.4,31.4l-26.7-15.1
		c-3.1-1.7-7-0.7-8.7,2.3c-1.8,3-0.7,6.8,2.3,8.6c0,0,9.8,5.6,17.1,9.7l-17.1,9.7c-3.1,1.7-4.1,5.6-2.3,8.6c1.8,3,5.7,4,8.7,2.3
		l17.1-9.7v19.3c0,3.5,2.9,6.3,6.4,6.3c3.5,0,6.4-2.8,6.4-6.3V36.8C178.6,34.5,177.4,32.5,175.4,31.4"/>
</g>
</svg>
