<!-- Generator: Adobe Illustrator 25.2.3, SVG Export Plug-In  -->
<svg version="1.1" xmlns="http://www.w3.org/2000/svg" xmlns:xlink="http://www.w3.org/1999/xlink" x="0px" y="0px" width="542.2px"
	 height="534.6px" viewBox="0 0 542.2 534.6" style="overflow:visible;enable-background:new 0 0 542.2 534.6;"
	 xml:space="preserve">
<style type="text/css">
	.st0{fill:#3D213F;}
</style>
<defs>
</defs>
<g>
	<path class="st0" d="M492,132.6c0.3-1.8,2.7-0.5,2.4-1.4l0.7-9.3c0.5-3.4-14.6-10.8-20.8-15.1l0,0l-26-19.6c0,0,0,0.1-0.1,0.3
		c-0.7-0.8-1.3-1.6-1.8-2.2c0,0,0,0,0,0c-1.9-5.8-3.6-12.4-5-18.1c0-0.2,0.1-0.3,0.1-0.5c-0.2-0.9-0.4-1.7-0.6-2.5
		c0.3-1.9,0.5-4.1,0.6-6.3l0.9-0.3c-0.3-0.6-0.5-1.6-0.6-2.7l0.5-0.2c-0.4-0.8-0.5-1.4-0.6-2.1c0-0.9,0.1-1.6,0.2-2
		c0.5-1.8,1.7-3.4,2.1-5.6c0,0,0,0,0-0.1c0-0.2,0.1-0.3,0.1-0.4c0-0.2,0-0.3,0.1-0.5c0-0.2,0-0.3,0-0.5c0-0.1,0-0.3,0-0.5
		c0-0.2,0-0.4,0-0.6c0-0.1,0-0.3,0-0.4c0-0.8,0-1.8,0-2.9c0,0,0,0,0,0c0.1-4.6,0.5-11.8-0.8-18.8c-0.2-1.1-0.5-2.2-0.8-3.3l0,0
		C439.2,4,428-5.7,397.1,3.8c-9.9,3-27.8,9.9-30.5,14.8c0,0.1-0.4,1.8-0.1,4c0.2,1.2,0.6,2.6,1.3,3.9c1.2,2.1,3.3,4.1,7,5.4
		c-0.2,4.2-0.4,8.2,1.2,12.7c0.9,2.6,2.7,5.5,4.8,8c-0.1,0.2-0.2,0.4-0.2,0.7l2.4,3.3c0.2-0.2,0.5-0.4,0.8-0.6
		c0.2,0.2,0.4,0.4,0.6,0.5c1.3,3.8,2.4,7.2,2.8,9.7c1.8,10.3,13.1,28.7,18.7,31.7c0.2,0.1,0.3,0.2,0.5,0.2c-5.9,1.8-13,6.6-16.4,8.6
		c0.1,0,0.1,0.1,0.2,0.1c-5.3,2.9-10.5,5.8-14.4,8.1c-13.7-1.9-16.9,24-19.1,37.2l-19.1,2.4l-51-47.2l-0.4,7.6l0,0l0,0l-0.5,8.7
		l-13.4-8.8l-5.3-3.4v0l0,0c0,0,3.2,15.1,6.6,31.8c0,0.1,0,0.2,0.1,0.3c0,0.1,0,0.2,0.1,0.4l0,0c0.5,2.3,0.9,4.6,1.4,6.9
		c-1.2,0.2-2.2,0.5-3,1c-2.9,1.8-2.7,5.5-1.1,6.9c-2.2,1.7-2.5,5.1-0.1,5.9l0.5,0.2c-3.9,1.1-5,5.6-1.5,6.6l1.7,0.7
		c0.7,0.3,1.7,0.7,2.9,1c-1.5-0.2-2.9-0.3-3.8,0.1c-3.2,1.3-1.4,6.8,1.3,6.9l0.5,0.2c-0.3,6.4,4.6,12.4,11.1,15.2c0,0.1,0,0.1,0,0.2
		c4.5,20.5,11.9,48.6,11.9,48.6l1.2,0.8l0,0c-2.9-0.5-5.6-0.8-7.9-0.9c0,0-0.1,0-0.1,0c-15.2-3.2-34.9,17.1-46.6,25.1
		c-26.4,18-83.4,55.7-106.9,72.5l7.3,14.8c-2.5-1.8-5-3.7-7.6-5.3c-4.7-3.1-8.1-6.2-6.4-12.7c0.4-1.5-2.7-5.8-4.8-6.6
		c-4.7-1.8-9.8-2.8-14.7-3.2c-13.8-1-25.1-8.1-35.8-17.4c-1.8-1.6-3.6-4-5.5-4.3c-3.8-0.6-9-1.6-10.9,0.4c-1.9,1.9-1.5,8,0.1,11.3
		c3.1,6.4,7.8,12.2,11.8,18.2c0.1-0.1,0.3-0.2,0.4-0.3c2.8,4.2,5.6,8.6,8.5,12.7c6.2,8.8,13.7,15.7,24,18.5c3.8,1,7,2.2,7.8,8.1
		c0.9,7,15.9,13.5,20.9,9.2c6.3-5.4,11.9-11.7,17.6-17.8c1.4-1.5,1.8-3,1.4-4.5c23.9-8.4,51.8-15.8,78-25.8
		c-3.9,8.4-7.6,16.4-10.9,23.5c-5.9,12.6-10.7,22.1-13.7,25.5l-63.9,97.3c11.8,11.2,37.5,3.3,37.5,3.3s31.9-35.8,64.5-78.6v43.2
		c0,2.1,0.9,4.1,2.3,5.6c0.4,0.4,0.9,0.8,1.4,1.2c0.1,0.1,0.2,0.2,0.3,0.2v1.9h6.8l-12.9,30.2c-1.7,3.9,0.9,4.3,2.2,4.3
		c0.4,0,0.6,0,0.6,0c0,0,0,0,0.1,0c4.8,0,6.9-3.8,6.9-3.8l19.2-30.7h162.6l19.2,30.7c0,0,2.1,3.8,6.9,3.8c0,0,0,0,0.1,0
		c0,0,0.2,0,0.6,0c1.3,0,3.9-0.4,2.2-4.3l-12.9-30.2h19.9v-0.1h0v0h60.1c5.5,0,10-4,10-8.8V295.7H515l12.6-91.1
		c0-11.2-10.2-20.3-22.9-20.3h-7.2c3.7-23.3-2.4-62.3-2.4-62.3"/>
	<path class="st0" d="M541.6,490.6l-12.9-30.2h-9h-7l19.2,30.7c0,0,2.1,3.8,6.9,3.8c0,0,0,0,0.1,0c0,0,0.2,0,0.6,0
		C540.7,494.9,543.3,494.4,541.6,490.6z"/>
	<path class="st0" d="M112.5,239.6c0.5,1.5,1.1,2.9,1.7,4.2c0.7,1.4,1.5,2.8,2.4,4h20.7c0,0,0,0,0,0h0c0.7-1,1.4-2,2-3.1
		c0,0.6,0.1,1.2,0.3,1.9c0.2,0.6,0.6,0.8,1.1,0.9c0.8,0,1.8-0.6,1.5-1.5c-0.3-1-0.1-1.9,0.4-2.6c1.4-2,5.2-3,7.6-3.9
		c0.2-0.1,0.4-0.2,0.6-0.2c1-0.4,1.9-0.9,2.7-1.4c1.9-1.3,3.2-3.2,3.3-5.5c0-0.2,0-0.4,0-0.7c0-0.2,0-0.4-0.1-0.6
		c-0.2-1.2-1-2-2.1-2.6c-1.3-0.7-3-1-4.5-0.9c-2.4,0.1-4.8,0.8-6.7,2.1c-0.1,0-0.1,0.1-0.2,0.1c0,0,0,0,0,0c0-0.6,0.1-1.2,0.1-1.8h0
		c0,0,0,0,0,0h-9.7c0,0,0,0,0,0h-23C110.8,232.1,111.4,236.1,112.5,239.6z M150.5,229.9c0.4,0,0.8,0,1.2,0c0.3,0,0.6,0.1,0.9,0.2
		c1.1,0.3,1.7,1.2,1.6,2.3c0,0.1,0,0.1,0,0.2c-0.3,1.8-1.4,2.9-3.1,3.8c-3,1.6-7.8,2.7-10.2,5c0.2-0.5,0.4-1,0.6-1.6
		c0.7-2,1.2-4.2,1.5-6.5c0,0,0,0,0,0c0,0,0,0,0,0c0.1,0,0.1-0.1,0.2-0.2c0.9-1,2.1-1.8,3.5-2.4C147.9,230.3,149.2,230,150.5,229.9z"
		/>
	<polygon class="st0" points="206.8,287.2 255.5,249.1 0,254.4 7.4,278 16.8,498.2 26.9,498.2 33.1,287.2 	"/>
	<path class="st0" d="M168.4,494.7c-4.7,0.6-9.5,0.9-14.1,1.6c-5.8,0.9-10.8,0.9-14.3-4.9c-0.8-1.3-6.4-2.4-8.5-1.5
		c-4.9,1.8-9.5,4.5-13.5,7.5c-11.1,8.4-25,10.8-39.9,11.2c-2.5,0.1-5.7-0.5-7.4,0.5c-3.3,2-8,4.8-8,7.5c0,2.6,4.8,6.8,8.4,8.1
		c7.1,2.6,14.9,3.6,22.5,5.3c0-0.2,0.1-0.3,0.1-0.5c5.3,1.2,10.6,2.5,15.9,3.5c11.3,2.3,22,2.3,31.8-2.5c3.6-1.8,6.9-3.1,11.9,0.7
		c5.9,4.5,22-0.8,22.6-7.1c0.8-8.1,0.3-16.4,0-24.6C176,495.7,172.9,494.2,168.4,494.7z"/>
</g>
</svg>
