<!-- Generator: Adobe Illustrator 25.2.3, SVG Export Plug-In  -->
<svg version="1.1" xmlns="http://www.w3.org/2000/svg" xmlns:xlink="http://www.w3.org/1999/xlink" x="0px" y="0px" width="121.6px"
	 height="109.1px" viewBox="0 0 121.6 109.1" style="overflow:visible;enable-background:new 0 0 121.6 109.1;"
	 xml:space="preserve">
<style type="text/css">
	.st0{fill:#3D213F;}
	.st1{fill:#58405A;}
	.st2{fill:#523954;}
</style>
<defs>
</defs>
<g>
	<g>
		<g>
			<path class="st0" d="M41.7,39.1v54.7c0,1.7-1.6,3.1-3.5,3.1H4.4c-1.9,0-3.5-1.4-3.5-3.1V39.1H41.7z"/>
			<path class="st0" d="M17.1,39.1v57.8H4.4c-1.9,0-3.5-1.4-3.5-3.1V39.1H17.1z"/>
			<path class="st0" d="M108.4,0H52.3l-7.5,68.1h56.1c4.4,0,8-3.2,8-7.1l7.5-53.9C116.5,3.2,112.9,0,108.4,0"/>
			<path class="st1" d="M95.2,61c0,3.9-3.6,7.1-8,7.1H38c-4.4,0-8-3.2-8-7.1l7.5-53.9c0-3.9,3.6-7.1,8-7.1h49.1c4.4,0,8,3.2,8,7.1
				L95.2,61z"/>
		</g>
		<rect x="17.1" y="61.1" class="st0" width="77.7" height="35.8"/>
		<rect x="17.1" y="86.3" class="st0" width="77.7" height="10.6"/>
		<g>
			<path class="st0" d="M18,84.3h73.3c1.9,0,3.5-1.2,3.5-2.7V60.2c0-1-1.6-2.2-3.5-2.7c-29-4.3-70.7,0-70.7,0
				c-2.2,0.6-2.8,1.2-3.5,2.7v23.1C17.1,83.3,17,84.3,18,84.3"/>
			<path class="st2" d="M17.1,60.5h77.7v21.1c0,1.5-1.6,2.7-3.5,2.7H18c-1,0-0.9-1-0.9-1V60.5z"/>
			<path class="st0" d="M10.4,96.9H7.9H4.7l-4.5,10.6c-0.6,1.4,0.3,1.5,0.8,1.5c0.1,0,0.2,0,0.2,0c0,0,0,0,0,0
				c1.7,0,2.4-1.3,2.4-1.3L10.4,96.9z"/>
			<path class="st0" d="M87.9,96.9h-3.2h-2.5l6.7,10.8c0,0,0.7,1.3,2.4,1.3c0,0,0,0,0,0c0,0,0.1,0,0.2,0c0.4,0,1.4-0.1,0.8-1.5
				L87.9,96.9z"/>
			<path class="st0" d="M116.8,96.9h-3.2h-2.5l6.7,10.8c0,0,0.7,1.3,2.4,1.3c0,0,0,0,0,0c0,0,0.1,0,0.2,0c0.4,0,1.4-0.1,0.8-1.5
				L116.8,96.9z"/>
			<path class="st0" d="M119.5,39.1v54.7c0,1.7-1.6,3.1-3.5,3.1H82.2c-1.9,0-3.5-1.4-3.5-3.1V39.1H119.5z"/>
			<path class="st0" d="M94.9,39.1v54.6c0,3.1-2.9,3.1-2.9,3.1h-9.8c-1.9,0-3.5-1.4-3.5-3.1V39.1H94.9z"/>
		</g>
	</g>
</g>
</svg>
