<!-- Generator: Adobe Illustrator 25.2.3, SVG Export Plug-In  -->
<svg version="1.1" xmlns="http://www.w3.org/2000/svg" xmlns:xlink="http://www.w3.org/1999/xlink" x="0px" y="0px" width="121.6px"
	 height="109.1px" viewBox="0 0 121.6 109.1" style="overflow:visible;enable-background:new 0 0 121.6 109.1;"
	 xml:space="preserve">
<style type="text/css">
	.st0{fill:#3D213F;}
	.st1{fill:#58405A;}
	.st2{fill:#523954;}
</style>
<defs>
</defs>
<g>
	<g>
		<g>
			<path class="st0" d="M79.8,39.1v54.7c0,1.7,1.6,3.1,3.5,3.1h33.8c1.9,0,3.5-1.4,3.5-3.1V39.1H79.8z"/>
			<path class="st0" d="M104.4,39.1v57.8h12.7c1.9,0,3.5-1.4,3.5-3.1V39.1H104.4z"/>
			<path class="st0" d="M13.1,0l56.1,0l7.5,68.1H20.6c-4.4,0-8-3.2-8-7.1L5.1,7.1C5.1,3.2,8.7,0,13.1,0"/>
			<path class="st1" d="M26.4,61c0,3.9,3.6,7.1,8,7.1h49.1c4.4,0,8-3.2,8-7.1L84.1,7.1c0-3.9-3.6-7.1-8-7.1L27,0c-4.4,0-8,3.2-8,7.1
				L26.4,61z"/>
		</g>
		<rect x="26.7" y="61.1" class="st0" width="77.7" height="35.8"/>
		<rect x="26.7" y="86.3" class="st0" width="77.7" height="10.6"/>
		<g>
			<path class="st0" d="M103.5,84.3H30.2c-1.9,0-3.5-1.2-3.5-2.7V60.2c0-1,1.6-2.2,3.5-2.7c29-4.3,70.7,0,70.7,0
				c2.2,0.6,2.8,1.2,3.5,2.7v23.1C104.4,83.3,104.5,84.3,103.5,84.3"/>
			<path class="st2" d="M104.4,60.5H26.7v21.1c0,1.5,1.6,2.7,3.5,2.7h73.3c1,0,0.9-1,0.9-1V60.5z"/>
			<path class="st0" d="M111.2,96.9h2.5h3.2l4.5,10.6c0.6,1.4-0.3,1.5-0.8,1.5c-0.1,0-0.2,0-0.2,0c0,0,0,0,0,0
				c-1.7,0-2.4-1.3-2.4-1.3L111.2,96.9z"/>
			<path class="st0" d="M33.7,96.9h3.2h2.5l-6.7,10.8c0,0-0.7,1.3-2.4,1.3c0,0,0,0,0,0c0,0-0.1,0-0.2,0c-0.4,0-1.4-0.1-0.8-1.5
				L33.7,96.9z"/>
			<path class="st0" d="M4.7,96.9h3.2h2.5l-6.7,10.8c0,0-0.7,1.3-2.4,1.3c0,0,0,0,0,0c0,0-0.1,0-0.2,0c-0.4,0-1.4-0.1-0.8-1.5
				L4.7,96.9z"/>
			<path class="st0" d="M2.1,39.1v54.7c0,1.7,1.6,3.1,3.5,3.1h33.8c1.9,0,3.5-1.4,3.5-3.1V39.1H2.1z"/>
			<path class="st0" d="M26.7,39.1v54.6c0,3.1,2.9,3.1,2.9,3.1h9.8c1.9,0,3.5-1.4,3.5-3.1V39.1H26.7z"/>
			<path class="st0" d="M103.1,39h8.7c1.4,0,2.5-1,2.5-2.1h-13.7C100.6,38.1,101.7,39,103.1,39"/>
			<path class="st0" d="M114.5,29.8c0,4.5-3.1,8.2-7,8.2c-3.9,0-7-3.7-7-8.2H114.5z"/>
			<path class="st0" d="M102.5,36.1c0.4,0,0.8-0.1,1.1-0.2l-0.4-0.9c-0.5,0.2-1.7,0.1-2.6-0.4c-0.4-0.2-0.8-0.7-0.8-1.4
				c0-0.8,0.6-1.4,1.4-1.4c0.1,0,0.3,0,0.4,0.1l0.3-1c-0.2-0.1-0.5-0.1-0.7-0.1c-1.3,0-2.4,1.1-2.4,2.5c0,0.9,0.5,1.7,1.3,2.2
				C100.8,35.9,101.7,36.1,102.5,36.1"/>
			<path class="st0" d="M108.2,23c0.2,0.4,0.5,0.7,0.7,1.1c0.5,0.8,0.7,2,0.3,2.9c-0.4,0.9-1.2,1.7-2.2,1.9c0.5-0.2,0.9-0.7,1.1-1.3
				c0.2-0.6,0.1-1.2-0.1-1.7c-0.3-0.5-0.7-0.9-1-1.3c-0.3-0.4-0.4-0.9-0.5-1.5c0-0.6,0.1-1.3,0.5-1.6c0.4-0.3,0.9-0.4,1.3-0.8
				C108,21.4,107.8,22.2,108.2,23"/>
			<path class="st0" d="M106.5,28.3c0.2-0.2,0.5-0.5,0.6-0.8c0.1-0.3-0.1-0.7-0.3-1c-0.2-0.3-0.3-0.6-0.5-0.9
				c-0.3-0.4-0.6-0.8-0.5-1.3c-0.4,0.5-0.4,1.2-0.1,1.7c0.1,0.2,0.2,0.3,0.3,0.5c0.2,0.4,0.4,0.8,0.3,1.2c0,0.4-0.2,0.7-0.5,1
				C106.1,28.8,106.3,28.5,106.5,28.3"/>
		</g>
	</g>
</g>
</svg>
