<!-- Generator: Adobe Illustrator 25.2.3, SVG Export Plug-In  -->
<svg version="1.1" xmlns="http://www.w3.org/2000/svg" xmlns:xlink="http://www.w3.org/1999/xlink" x="0px" y="0px"
	 width="1127.8px" height="164.8px" viewBox="0 0 1127.8 164.8" style="overflow:visible;enable-background:new 0 0 1127.8 164.8;"
	 xml:space="preserve">
<style type="text/css">
	.st0{opacity:0.34;fill:#F2D891;}
	.st1{fill:#6D6D6D;}
	.st2{fill:#4E4261;}
	.st3{opacity:0.35;fill:#FFFFFF;}
</style>
<defs>
</defs>
<g>
	<g>
		<rect x="141.5" y="5.4" class="st0" width="133.8" height="159.4"/>
		<rect x="275.3" y="5.4" class="st1" width="6.2" height="158.3"/>
	</g>
	<g>
		<rect y="5.4" class="st0" width="133.8" height="159.4"/>
		<rect x="133.8" y="5.4" class="st1" width="6.2" height="158.3"/>
	</g>
	<g>
		<rect x="283" y="5.4" class="st0" width="133.8" height="159.4"/>
		<rect x="416.8" y="5.4" class="st1" width="6.2" height="158.3"/>
	</g>
	<g>
		<rect x="424.1" y="5.4" class="st0" width="133.8" height="159.4"/>
		<rect x="557.9" y="5.4" class="st1" width="6.2" height="158.3"/>
	</g>
	<g>
		<rect x="564.9" y="5.4" class="st0" width="133.8" height="159.4"/>
		<rect x="698.7" y="5.4" class="st1" width="6.2" height="158.3"/>
	</g>
	<g>
		<rect x="705.9" y="5.4" class="st0" width="133.8" height="159.4"/>
		<rect x="839.7" y="5.4" class="st1" width="6.2" height="158.3"/>
	</g>
	<g>
		<rect x="845.7" y="5.4" class="st0" width="133.8" height="159.4"/>
		<rect x="979.6" y="5.4" class="st1" width="6.2" height="158.3"/>
	</g>
	<g>
		<rect x="987.8" y="5.4" class="st0" width="133.8" height="159.4"/>
		<rect x="1121.6" y="5.4" class="st1" width="6.2" height="158.3"/>
	</g>
	<rect class="st2" width="1127.8" height="5.4"/>
	<polygon class="st3" points="490.3,162.7 454.7,162.7 502,5.4 537.6,5.4 	"/>
	<polygon class="st3" points="716,162.7 702.7,162.7 750,5.4 763.3,5.4 	"/>
	<polygon class="st3" points="806.7,162.7 793.4,162.7 840.7,5.4 854,5.4 	"/>
	<polygon class="st3" points="920.2,162.7 906.9,162.7 954.2,5.4 967.5,5.4 	"/>
	<polygon class="st3" points="962.6,162.7 949.3,162.7 996.5,5.4 1009.9,5.4 	"/>
	<polygon class="st3" points="69.5,162.7 56.2,162.7 103.5,5.4 116.8,5.4 	"/>
	<polygon class="st3" points="389.4,162.7 353.7,162.7 401,5.4 436.7,5.4 	"/>
	<polygon class="st3" points="111,162.7 75.4,162.7 122.6,5.4 158.3,5.4 	"/>
	<polygon class="st3" points="859.3,162.7 823.7,162.7 871,5.4 906.6,5.4 	"/>
	<polygon class="st3" points="222.9,162.7 167,162.7 214.2,5.4 270.2,5.4 	"/>
	<polygon class="st3" points="690.9,162.7 620.1,162.7 667.4,5.4 738.2,5.4 	"/>
</g>
</svg>
