<!-- Generator: Adobe Illustrator 25.2.3, SVG Export Plug-In  -->
<svg version="1.1" xmlns="http://www.w3.org/2000/svg" xmlns:xlink="http://www.w3.org/1999/xlink" x="0px" y="0px" width="445.2px"
	 height="140.8px" viewBox="0 0 445.2 140.8" style="overflow:visible;enable-background:new 0 0 445.2 140.8;"
	 xml:space="preserve">
<style type="text/css">
	.st0{fill:#F5F5F5;}
	.st1{fill:#F77A36;}
	.st2{fill:#B8B8B5;}
	.st3{fill:#999496;}
	.st4{fill:#1C1C1C;}
	.st5{fill:#878787;}
	.st6{fill:#707070;}
	.st7{fill:#9E9E9C;}
	.st8{fill:#575757;}
	.st9{fill:#C7C7C7;}
	.st10{fill:none;}
	.st11{fill:#8A8A87;}
	.st12{fill:#454545;}
	.st13{fill:#8C8C8C;}
	.st14{fill:#B0B0B0;}
	.st15{fill:#C2C2C2;}
	.st16{fill:#CCCCC9;}
	.st17{fill:#828585;}
	.st18{fill:#2E2921;}
	.st19{fill:#FFFFFF;}
	.st20{fill:#F2F5F7;}
	.st21{fill:#F2854A;}
	.st22{fill:#A1A6A6;}
	.st23{fill:#616666;}
	.st24{fill:#545759;}
	.st25{fill:#F9AF00;}
	.st26{fill:#FAFCFF;}
	.st27{fill:#F5F7FA;}
	.st28{fill:#BDBFC2;}
	.st29{fill:#919494;}
	.st30{fill:#F7AB82;}
	.st31{fill:#D4D6D6;}
	.st32{fill:#FAFFFF;}
</style>
<defs>
</defs>
<g>
	<g>
		<path class="st0" d="M19.3,84.4l-5.2,0.2l4.1,12.9l0.2,0.5c1.3,0.4,2.6,0.9,3.8,1.3c9.7,3.3,19.4,6.5,29,9.5
			c5.1,1.6,10.1,3.1,15.2,4.6c15.3,4.5,30.4,8.3,44.9,11.3c17.9,3.7,35,6,50.8,6.5c4.9,0.1,15.9,0.3,30.5,0.5
			c13.3,0.2,29.5,0.3,47.1,0.4c15.9,0.1,32.9,0.2,49.7,0.2c52.4,0.1,102.7-0.4,112.4-2.1c0.4-0.1,0.9-0.2,1.3-0.2
			c7.3-1.3,13.7-2.9,19.1-4.6c11.4-3.5,18.7-7.4,21.6-10.7c0.9-1,1.4-2,1.4-2.9c0.1-3.9-4.8-6.9-19.7-12.6l-0.3-0.3
			c-1.6-1.4-2.8-2.8-4.2-4.1c-0.2-0.2-0.3-0.3-0.5-0.5c-5-4.6-13-8.7-50.3-13.1c-44.8-5.3-233.8-2.5-233.8-2.5S94.1,67,86.9,63.9
			c-5.4-2.3-50-52.7-58.5-62.3c-0.9-1-2.2-1.6-3.5-1.6L6.8,0l21.9,84l-2.9,0.1L19.3,84.4z"/>
		<path class="st1" d="M6.8,0l20.5,78.5l109.1,0.3c-11.7-3.3-43.8-12.5-49.4-14.9c-5.4-2.3-50-52.7-58.5-62.3
			c-0.9-1-2.2-1.6-3.5-1.6L6.8,0z"/>
		<path class="st1" d="M21,89.3c8,2.8,11.6,0.9,30.2,19.6c51.7-1.9,284.6-4.9,312.4-3.7c31.2,1.4,79.2,9.4,80.3,9.6
			c-1.5-0.4-83.4-24.7-115.7-26.7c-46.5-2.9-289.5-2.3-289.5-2.3L21,89.3z"/>
		<path class="st2" d="M181.6,131.6c3.3,0,7,0.1,11,0.1l2-6.7l-12.9,0V131.6z M239.7,132.2c4.5,0,9.1,0.1,13.9,0.1
			c11.6,0.1,23.6,0.1,35.8,0.2c3.4,0,6.7,0,10,0c48.6,0,93.3-0.5,102.4-2.1c0.4-0.1,0.9-0.2,1.3-0.2c7.3-1.3,13.7-2.9,19.1-4.6
			l-177.5-0.4L239.7,132.2z"/>
		<path class="st3" d="M402.3,95.3l0,3.1c0,0.4,0.3,0.8,0.7,0.9l8.7,2.4c0.3,0.1,0.6,0.1,0.9,0l6.8-1.8l6.1-0.7l-0.3-0.3
			c-1.6-1.4-2.8-2.8-4.2-4.1c-0.2-0.2-0.3-0.3-0.5-0.5l-17.3,0C402.7,94.4,402.3,94.8,402.3,95.3"/>
		<path d="M407.9,95.1l-4.4,0c-0.2,0-0.3,0.1-0.3,0.3l0,1.9c0,0.4,0.2,0.7,0.6,0.8l7.3,2.8l-2.3-5.2
			C408.6,95.3,408.3,95.1,407.9,95.1"/>
		<path d="M415,95.4l-4.9,0c-0.2,0-0.3,0.2-0.2,0.3l2.4,5c0.1,0.2,0.3,0.3,0.5,0.2l6-1.2c0.1,0,0.2-0.2,0.1-0.3l-3.6-3.9
			C415.2,95.4,415.1,95.4,415,95.4"/>
		<path d="M416.1,95.1l4.2,4.2l4.8-0.3c-1.6-1.4-2.8-2.8-4.2-4.1L416.1,95.1z"/>
		<path class="st4" d="M374.6,87.3c-1.1,0-2,0.9-2,1.9l-0.1,23.1c0,1.1,0.9,1.9,2,1.9l7.7,0c1.1,0,2-0.9,2-1.9l0.1-23.1
			c0-1.1-0.9-1.9-2-1.9L374.6,87.3z M374.5,114.7c-1.3,0-2.4-1-2.4-2.3l0.1-23.1c0-1.3,1.1-2.3,2.4-2.3l7.7,0c1.3,0,2.4,1,2.4,2.3
			l-0.1,23.1c0,1.3-1.1,2.3-2.4,2.3L374.5,114.7"/>
		<path class="st5" d="M375.7,100.8l5.3,0c0.4,0,0.7-0.3,0.7-0.7c0-0.4-0.3-0.7-0.7-0.7l-5.3,0c-0.4,0-0.7,0.3-0.7,0.7
			C375.1,100.5,375.4,100.8,375.7,100.8"/>
		<path class="st6" d="M376.5,96.2c0,1,0.8,1.8,1.9,1.8c1,0,1.9-0.8,1.9-1.8c0-1-0.8-1.8-1.9-1.8C377.4,94.3,376.5,95.2,376.5,96.2"
			/>
		<path class="st7" d="M376.9,96.2c0,0.8,0.6,1.4,1.5,1.4c0.8,0,1.5-0.6,1.5-1.4c0-0.8-0.6-1.4-1.5-1.4
			C377.6,94.8,376.9,95.4,376.9,96.2"/>
		<path class="st7" d="M362.2,102.3l1.2,0c0.8,0,1.5-0.7,1.5-1.5l0-2.8c0-0.8-0.7-1.5-1.5-1.5l-1.2,0c-0.8,0-1.5,0.7-1.5,1.5l0,2.8
			C360.7,101.7,361.4,102.3,362.2,102.3"/>
		<path class="st8" d="M362.3,102l1.1,0c0.7,0,1.3-0.6,1.3-1.3l0-2.5c0-0.7-0.6-1.3-1.3-1.3l-1.1,0c-0.7,0-1.3,0.6-1.3,1.3l0,2.5
			C360.9,101.4,361.5,102,362.3,102"/>
		<path class="st7" d="M355.6,102.3l1.2,0c0.8,0,1.5-0.7,1.5-1.5l0-2.8c0-0.8-0.7-1.5-1.5-1.5l-1.2,0c-0.8,0-1.5,0.7-1.5,1.5l0,2.8
			C354,101.6,354.7,102.3,355.6,102.3"/>
		<path class="st8" d="M355.6,102l1.1,0c0.7,0,1.3-0.6,1.3-1.3l0-2.5c0-0.7-0.6-1.3-1.3-1.3l-1.1,0c-0.7,0-1.3,0.6-1.3,1.3l0,2.5
			C354.3,101.4,354.9,102,355.6,102"/>
		<path class="st7" d="M348.9,102.3l1.2,0c0.8,0,1.5-0.7,1.5-1.5l0-2.8c0-0.8-0.7-1.5-1.5-1.5l-1.2,0c-0.8,0-1.5,0.7-1.5,1.5l0,2.8
			C347.4,101.6,348.1,102.3,348.9,102.3"/>
		<path class="st8" d="M349,102l1.1,0c0.7,0,1.3-0.6,1.3-1.3l0-2.5c0-0.7-0.6-1.3-1.3-1.3l-1.1,0c-0.7,0-1.3,0.6-1.3,1.3l0,2.5
			C347.6,101.4,348.2,102,349,102"/>
		<path class="st7" d="M342.2,102.3l1.2,0c0.8,0,1.5-0.7,1.5-1.5l0-2.8c0-0.8-0.7-1.5-1.5-1.5l-1.2,0c-0.8,0-1.5,0.7-1.5,1.5l0,2.8
			C340.7,101.6,341.4,102.3,342.2,102.3"/>
		<path class="st8" d="M342.3,102l1.1,0c0.7,0,1.3-0.6,1.3-1.3l0-2.5c0-0.7-0.6-1.3-1.3-1.3l-1.1,0c-0.7,0-1.3,0.6-1.3,1.3l0,2.5
			C340.9,101.4,341.5,102,342.3,102"/>
		<path class="st7" d="M335.6,102.3l1.2,0c0.8,0,1.5-0.7,1.5-1.5l0-2.8c0-0.8-0.7-1.5-1.5-1.5l-1.2,0c-0.8,0-1.5,0.7-1.5,1.5l0,2.8
			C334,101.6,334.7,102.3,335.6,102.3"/>
		<path class="st8" d="M335.6,101.9l1.1,0c0.7,0,1.3-0.6,1.3-1.3l0-2.5c0-0.7-0.6-1.3-1.3-1.3l-1.1,0c-0.7,0-1.3,0.6-1.3,1.3l0,2.5
			C334.3,101.3,334.9,101.9,335.6,101.9"/>
		<path class="st7" d="M328.9,102.2l1.2,0c0.8,0,1.5-0.7,1.5-1.5l0-2.8c0-0.8-0.7-1.5-1.5-1.5l-1.2,0c-0.8,0-1.5,0.7-1.5,1.5l0,2.8
			C327.4,101.6,328.1,102.2,328.9,102.2"/>
		<path class="st8" d="M329,101.9l1.1,0c0.7,0,1.3-0.6,1.3-1.3l0-2.5c0-0.7-0.6-1.3-1.3-1.3l-1.1,0c-0.7,0-1.3,0.6-1.3,1.3l0,2.5
			C327.6,101.3,328.2,101.9,329,101.9"/>
		<path class="st7" d="M322.2,102.2l1.2,0c0.8,0,1.5-0.7,1.5-1.5l0-2.8c0-0.8-0.7-1.5-1.5-1.5l-1.2,0c-0.8,0-1.5,0.7-1.5,1.5l0,2.8
			C320.7,101.6,321.4,102.2,322.2,102.2"/>
		<path class="st8" d="M322.3,101.9l1.1,0c0.7,0,1.3-0.6,1.3-1.3l0-2.5c0-0.7-0.6-1.3-1.3-1.3l-1.1,0c-0.7,0-1.3,0.6-1.3,1.3l0,2.5
			C321,101.3,321.6,101.9,322.3,101.9"/>
		<path class="st7" d="M315.6,102.2l1.2,0c0.8,0,1.5-0.7,1.5-1.5l0-2.8c0-0.8-0.7-1.5-1.5-1.5l-1.2,0c-0.8,0-1.5,0.7-1.5,1.5l0,2.8
			C314,101.5,314.7,102.2,315.6,102.2"/>
		<path class="st8" d="M315.6,101.9l1.1,0c0.7,0,1.3-0.6,1.3-1.3l0-2.5c0-0.7-0.6-1.3-1.3-1.3l-1.1,0c-0.7,0-1.3,0.6-1.3,1.3l0,2.5
			C314.3,101.3,314.9,101.9,315.6,101.9"/>
		<path class="st7" d="M308.9,102.2l1.2,0c0.8,0,1.5-0.7,1.5-1.5l0-2.8c0-0.8-0.7-1.5-1.5-1.5l-1.2,0c-0.8,0-1.5,0.7-1.5,1.5l0,2.8
			C307.4,101.5,308.1,102.2,308.9,102.2"/>
		<path class="st8" d="M309,101.9l1.1,0c0.7,0,1.3-0.6,1.3-1.3l0-2.5c0-0.7-0.6-1.3-1.3-1.3l-1.1,0c-0.7,0-1.3,0.6-1.3,1.3l0,2.5
			C307.6,101.3,308.2,101.9,309,101.9"/>
		<path class="st7" d="M302.2,102.2l1.2,0c0.8,0,1.5-0.7,1.5-1.5l0-2.8c0-0.8-0.7-1.5-1.5-1.5l-1.2,0c-0.8,0-1.5,0.7-1.5,1.5l0,2.8
			C300.7,101.5,301.4,102.2,302.2,102.2"/>
		<path class="st8" d="M302.3,101.9l1.1,0c0.7,0,1.3-0.6,1.3-1.3l0-2.5c0-0.7-0.6-1.3-1.3-1.3l-1.1,0c-0.7,0-1.3,0.6-1.3,1.3l0,2.5
			C301,101.3,301.6,101.9,302.3,101.9"/>
		<path class="st7" d="M295.6,102.2l1.2,0c0.8,0,1.5-0.7,1.5-1.5l0-2.8c0-0.8-0.7-1.5-1.5-1.5l-1.2,0c-0.8,0-1.5,0.7-1.5,1.5l0,2.8
			C294.1,101.5,294.7,102.2,295.6,102.2"/>
		<path class="st8" d="M295.6,101.8l1.1,0c0.7,0,1.3-0.6,1.3-1.3l0-2.5c0-0.7-0.6-1.3-1.3-1.3l-1.1,0c-0.7,0-1.3,0.6-1.3,1.3l0,2.5
			C294.3,101.3,294.9,101.8,295.6,101.8"/>
		<path class="st7" d="M280.3,102.1l1.2,0c0.8,0,1.5-0.7,1.5-1.5l0-2.8c0-0.8-0.7-1.5-1.5-1.5l-1.2,0c-0.8,0-1.5,0.7-1.5,1.5l0,2.8
			C278.8,101.5,279.5,102.1,280.3,102.1"/>
		<path class="st8" d="M280.3,101.8l1.1,0c0.7,0,1.3-0.6,1.3-1.3l0-2.5c0-0.7-0.6-1.3-1.3-1.3l-1.1,0c-0.7,0-1.3,0.6-1.3,1.3l0,2.5
			C279,101.2,279.6,101.8,280.3,101.8"/>
		<path class="st7" d="M273.2,102.1l1.2,0c0.8,0,1.5-0.7,1.5-1.5l0-2.8c0-0.8-0.7-1.5-1.5-1.5l-1.2,0c-0.8,0-1.5,0.7-1.5,1.5l0,2.8
			C271.7,101.4,272.4,102.1,273.2,102.1"/>
		<path class="st8" d="M273.3,101.8l1.1,0c0.7,0,1.3-0.6,1.3-1.3l0-2.5c0-0.7-0.6-1.3-1.3-1.3l-1.1,0c-0.7,0-1.3,0.6-1.3,1.3l0,2.5
			C271.9,101.2,272.5,101.8,273.3,101.8"/>
		<path class="st7" d="M266.1,102.1l1.2,0c0.8,0,1.5-0.7,1.5-1.5l0-2.8c0-0.8-0.7-1.5-1.5-1.5l-1.2,0c-0.8,0-1.5,0.7-1.5,1.5l0,2.8
			C264.6,101.4,265.3,102.1,266.1,102.1"/>
		<path class="st8" d="M266.2,101.8l1.1,0c0.7,0,1.3-0.6,1.3-1.3l0-2.5c0-0.7-0.6-1.3-1.3-1.3l-1.1,0c-0.7,0-1.3,0.6-1.3,1.3l0,2.5
			C264.9,101.2,265.5,101.8,266.2,101.8"/>
		<path class="st7" d="M259.1,102.1l1.2,0c0.8,0,1.5-0.7,1.5-1.5l0-2.8c0-0.8-0.7-1.5-1.5-1.5l-1.2,0c-0.8,0-1.5,0.7-1.5,1.5l0,2.8
			C257.6,101.4,258.2,102.1,259.1,102.1"/>
		<path class="st8" d="M259.1,101.8l1.1,0c0.7,0,1.3-0.6,1.3-1.3l0-2.5c0-0.7-0.6-1.3-1.3-1.3l-1.1,0c-0.7,0-1.3,0.6-1.3,1.3l0,2.5
			C257.8,101.2,258.4,101.8,259.1,101.8"/>
		<path class="st7" d="M252,102.1l1.2,0c0.8,0,1.5-0.7,1.5-1.5l0-2.8c0-0.8-0.7-1.5-1.5-1.5l-1.2,0c-0.8,0-1.5,0.7-1.5,1.5l0,2.8
			C250.5,101.4,251.2,102.1,252,102.1"/>
		<path class="st8" d="M252.1,101.7l1.1,0c0.7,0,1.3-0.6,1.3-1.3l0-2.5c0-0.7-0.6-1.3-1.3-1.3l-1.1,0c-0.7,0-1.3,0.6-1.3,1.3l0,2.5
			C250.7,101.2,251.3,101.7,252.1,101.7"/>
		<path class="st7" d="M244.9,102l1.2,0c0.8,0,1.5-0.7,1.5-1.5l0-2.8c0-0.8-0.7-1.5-1.5-1.5l-1.2,0c-0.8,0-1.5,0.7-1.5,1.5l0,2.8
			C243.4,101.4,244.1,102,244.9,102"/>
		<path class="st8" d="M245,101.7l1.1,0c0.7,0,1.3-0.6,1.3-1.3l0-2.5c0-0.7-0.6-1.3-1.3-1.3l-1.1,0c-0.7,0-1.3,0.6-1.3,1.3l0,2.5
			C243.7,101.1,244.3,101.7,245,101.7"/>
		<path class="st8" d="M244.2,93.8c-1.2,0-2.3,1-2.3,2.2l0,9.2c0,1.2,1,2.2,2.3,2.2l2.7,0c1.2,0,2.3-1,2.3-2.2l0-9.2
			c0-1.2-1-2.2-2.3-2.2L244.2,93.8z M244.2,107.7c-1.5,0-2.7-1.2-2.7-2.6l0-9.2c0-1.4,1.2-2.6,2.7-2.6l2.7,0c1.5,0,2.7,1.2,2.7,2.6
			l0,9.2c0,1.4-1.2,2.6-2.7,2.6L244.2,107.7"/>
		<path class="st7" d="M237.9,102l1.2,0c0.8,0,1.5-0.7,1.5-1.5l0-2.8c0-0.8-0.7-1.5-1.5-1.5l-1.2,0c-0.8,0-1.5,0.7-1.5,1.5l0,2.8
			C236.4,101.4,237,102,237.9,102"/>
		<path class="st8" d="M237.9,101.7l1.1,0c0.7,0,1.3-0.6,1.3-1.3l0-2.5c0-0.7-0.6-1.3-1.3-1.3l-1.1,0c-0.7,0-1.3,0.6-1.3,1.3l0,2.5
			C236.6,101.1,237.2,101.7,237.9,101.7"/>
		<path class="st7" d="M230.8,102l1.2,0c0.8,0,1.5-0.7,1.5-1.5l0-2.8c0-0.8-0.7-1.5-1.5-1.5l-1.2,0c-0.8,0-1.5,0.7-1.5,1.5l0,2.8
			C229.3,101.3,230,102,230.8,102"/>
		<path class="st8" d="M230.9,101.7l1.1,0c0.7,0,1.3-0.6,1.3-1.3l0-2.5c0-0.7-0.6-1.3-1.3-1.3l-1.1,0c-0.7,0-1.3,0.6-1.3,1.3l0,2.5
			C229.5,101.1,230.1,101.7,230.9,101.7"/>
		<path class="st7" d="M223.7,102l1.2,0c0.8,0,1.5-0.7,1.5-1.5l0-2.8c0-0.8-0.7-1.5-1.5-1.5l-1.2,0c-0.8,0-1.5,0.7-1.5,1.5l0,2.8
			C222.2,101.3,222.9,102,223.7,102"/>
		<path class="st8" d="M223.8,101.7l1.1,0c0.7,0,1.3-0.6,1.3-1.3l0-2.5c0-0.7-0.6-1.3-1.3-1.3l-1.1,0c-0.7,0-1.3,0.6-1.3,1.3l0,2.5
			C222.5,101.1,223.1,101.7,223.8,101.7"/>
		<path class="st7" d="M216.7,102l1.2,0c0.8,0,1.5-0.7,1.5-1.5l0-2.8c0-0.8-0.7-1.5-1.5-1.5l-1.2,0c-0.8,0-1.5,0.7-1.5,1.5l0,2.8
			C215.2,101.3,215.8,102,216.7,102"/>
		<path class="st8" d="M216.7,101.7l1.1,0c0.7,0,1.3-0.6,1.3-1.3l0-2.5c0-0.7-0.6-1.3-1.3-1.3l-1.1,0c-0.7,0-1.3,0.6-1.3,1.3l0,2.5
			C215.4,101.1,216,101.7,216.7,101.7"/>
		<path class="st7" d="M209.6,102l1.2,0c0.8,0,1.5-0.7,1.5-1.5l0-2.8c0-0.8-0.7-1.5-1.5-1.5l-1.2,0c-0.8,0-1.5,0.7-1.5,1.5l0,2.8
			C208.1,101.3,208.8,102,209.6,102"/>
		<path class="st8" d="M209.7,101.6l1.1,0c0.7,0,1.3-0.6,1.3-1.3l0-2.5c0-0.7-0.6-1.3-1.3-1.3l-1.1,0c-0.7,0-1.3,0.6-1.3,1.3l0,2.5
			C208.3,101,208.9,101.6,209.7,101.6"/>
		<path class="st7" d="M202.5,101.9l1.2,0c0.8,0,1.5-0.7,1.5-1.5l0-2.8c0-0.8-0.7-1.5-1.5-1.5l-1.2,0c-0.8,0-1.5,0.7-1.5,1.5l0,2.8
			C201,101.3,201.7,101.9,202.5,101.9"/>
		<path class="st8" d="M202.6,101.6l1.1,0c0.7,0,1.3-0.6,1.3-1.3l0-2.5c0-0.7-0.6-1.3-1.3-1.3l-1.1,0c-0.7,0-1.3,0.6-1.3,1.3l0,2.5
			C201.3,101,201.9,101.6,202.6,101.6"/>
		<path class="st7" d="M195.5,101.9l1.2,0c0.8,0,1.5-0.7,1.5-1.5l0-2.8c0-0.8-0.7-1.5-1.5-1.5l-1.2,0c-0.8,0-1.5,0.7-1.5,1.5l0,2.8
			C194,101.3,194.6,101.9,195.5,101.9"/>
		<path class="st8" d="M195.5,101.6l1.1,0c0.7,0,1.3-0.6,1.3-1.3l0-2.5c0-0.7-0.6-1.3-1.3-1.3l-1.1,0c-0.7,0-1.3,0.6-1.3,1.3l0,2.5
			C194.2,101,194.8,101.6,195.5,101.6"/>
		<path class="st7" d="M188.4,101.9l1.2,0c0.8,0,1.5-0.7,1.5-1.5l0-2.8c0-0.8-0.7-1.5-1.5-1.5l-1.2,0c-0.8,0-1.5,0.7-1.5,1.5l0,2.8
			C186.9,101.2,187.6,101.9,188.4,101.9"/>
		<path class="st8" d="M188.5,101.6l1.1,0c0.7,0,1.3-0.6,1.3-1.3l0-2.5c0-0.7-0.6-1.3-1.3-1.3l-1.1,0c-0.7,0-1.3,0.6-1.3,1.3l0,2.5
			C187.1,101,187.7,101.6,188.5,101.6"/>
		<path class="st7" d="M181.3,101.9l1.2,0c0.8,0,1.5-0.7,1.5-1.5l0-2.8c0-0.8-0.7-1.5-1.5-1.5l-1.2,0c-0.8,0-1.5,0.7-1.5,1.5l0,2.8
			C179.8,101.2,180.5,101.9,181.3,101.9"/>
		<path class="st8" d="M181.4,101.6l1.1,0c0.7,0,1.3-0.6,1.3-1.3l0-2.5c0-0.7-0.6-1.3-1.3-1.3l-1.1,0c-0.7,0-1.3,0.6-1.3,1.3l0,2.5
			C180.1,101,180.7,101.6,181.4,101.6"/>
		<path class="st7" d="M174.3,101.9l1.2,0c0.8,0,1.5-0.7,1.5-1.5l0-2.8c0-0.8-0.7-1.5-1.5-1.5l-1.2,0c-0.8,0-1.5,0.7-1.5,1.5l0,2.8
			C172.8,101.2,173.4,101.9,174.3,101.9"/>
		<path class="st8" d="M174.3,101.6l1.1,0c0.7,0,1.3-0.6,1.3-1.3l0-2.5c0-0.7-0.6-1.3-1.3-1.3l-1.1,0c-0.7,0-1.3,0.6-1.3,1.3l0,2.5
			C173,101,173.6,101.6,174.3,101.6"/>
		<path class="st7" d="M167.2,101.9l1.2,0c0.8,0,1.5-0.7,1.5-1.5l0-2.8c0-0.8-0.7-1.5-1.5-1.5l-1.2,0c-0.8,0-1.5,0.7-1.5,1.5l0,2.8
			C165.7,101.2,166.4,101.9,167.2,101.9"/>
		<path class="st8" d="M167.3,101.5l1.1,0c0.7,0,1.3-0.6,1.3-1.3l0-2.5c0-0.7-0.6-1.3-1.3-1.3l-1.1,0c-0.7,0-1.3,0.6-1.3,1.3l0,2.5
			C165.9,101,166.5,101.5,167.3,101.5"/>
		<path class="st7" d="M160.1,101.8l1.2,0c0.8,0,1.5-0.7,1.5-1.5l0-2.8c0-0.8-0.7-1.5-1.5-1.5l-1.2,0c-0.8,0-1.5,0.7-1.5,1.5l0,2.8
			C158.6,101.2,159.3,101.8,160.1,101.8"/>
		<path class="st8" d="M160.2,101.5l1.1,0c0.7,0,1.3-0.6,1.3-1.3l0-2.5c0-0.7-0.6-1.3-1.3-1.3l-1.1,0c-0.7,0-1.3,0.6-1.3,1.3l0,2.5
			C158.9,100.9,159.5,101.5,160.2,101.5"/>
		<path class="st7" d="M153.1,101.8l1.2,0c0.8,0,1.5-0.7,1.5-1.5l0-2.8c0-0.8-0.7-1.5-1.5-1.5l-1.2,0c-0.8,0-1.5,0.7-1.5,1.5l0,2.8
			C151.6,101.2,152.2,101.8,153.1,101.8"/>
		<path class="st8" d="M153.1,101.5l1.1,0c0.7,0,1.3-0.6,1.3-1.3l0-2.5c0-0.7-0.6-1.3-1.3-1.3l-1.1,0c-0.7,0-1.3,0.6-1.3,1.3l0,2.5
			C151.8,100.9,152.4,101.5,153.1,101.5"/>
		<path class="st7" d="M146,101.8l1.2,0c0.8,0,1.5-0.7,1.5-1.5l0-2.8c0-0.8-0.7-1.5-1.5-1.5l-1.2,0c-0.8,0-1.5,0.7-1.5,1.5l0,2.8
			C144.5,101.1,145.2,101.8,146,101.8"/>
		<path class="st8" d="M146.1,101.5l1.1,0c0.7,0,1.3-0.6,1.3-1.3l0-2.5c0-0.7-0.6-1.3-1.3-1.3l-1.1,0c-0.7,0-1.3,0.6-1.3,1.3l0,2.5
			C144.7,100.9,145.3,101.5,146.1,101.5"/>
		<path class="st7" d="M138.9,101.8l1.2,0c0.8,0,1.5-0.7,1.5-1.5l0-2.8c0-0.8-0.7-1.5-1.5-1.5l-1.2,0c-0.8,0-1.5,0.7-1.5,1.5l0,2.8
			C137.4,101.1,138.1,101.8,138.9,101.8"/>
		<path class="st8" d="M139,101.5l1.1,0c0.7,0,1.3-0.6,1.3-1.3l0-2.5c0-0.7-0.6-1.3-1.3-1.3l-1.1,0c-0.7,0-1.3,0.6-1.3,1.3l0,2.5
			C137.7,100.9,138.3,101.5,139,101.5"/>
		<path class="st7" d="M131.9,101.8l1.2,0c0.8,0,1.5-0.7,1.5-1.5l0-2.8c0-0.8-0.7-1.5-1.5-1.5l-1.2,0c-0.8,0-1.5,0.7-1.5,1.5l0,2.8
			C130.3,101.1,131,101.8,131.9,101.8"/>
		<path class="st8" d="M131.9,101.5l1.1,0c0.7,0,1.3-0.6,1.3-1.3l0-2.5c0-0.7-0.6-1.3-1.3-1.3l-1.1,0c-0.7,0-1.3,0.6-1.3,1.3l0,2.5
			C130.6,100.9,131.2,101.5,131.9,101.5"/>
		<path class="st7" d="M124.8,101.8l1.2,0c0.8,0,1.5-0.7,1.5-1.5l0-2.8c0-0.8-0.7-1.5-1.5-1.5l-1.2,0c-0.8,0-1.5,0.7-1.5,1.5l0,2.8
			C123.3,101.1,124,101.8,124.8,101.8"/>
		<path class="st8" d="M124.9,101.4l1.1,0c0.7,0,1.3-0.6,1.3-1.3l0-2.5c0-0.7-0.6-1.3-1.3-1.3l-1.1,0c-0.7,0-1.3,0.6-1.3,1.3l0,2.5
			C123.5,100.8,124.1,101.4,124.9,101.4"/>
		<path class="st8" d="M94.4,85.7c-1.2,0-2.2,1-2.2,2.1l-0.1,21.9c0,1.2,1,2.1,2.2,2.2l5.5,0c1.2,0,2.2-1,2.2-2.1l0.1-21.9
			c0-1.2-1-2.2-2.2-2.2L94.4,85.7z M94.3,112.3c-1.4,0-2.6-1.1-2.6-2.5l0.1-21.9c0-1.4,1.2-2.5,2.6-2.5l5.5,0c1.4,0,2.6,1.1,2.6,2.5
			l-0.1,21.9c0,1.4-1.2,2.5-2.6,2.5L94.3,112.3"/>
		<path class="st8" d="M0,74l4,2.9l17,12.4c3,0.6,6.1,1.1,9.2,1.5c11.7,1.6,23.6,2.3,28.3,1.5c0.1,0,0.3-0.1,0.4-0.1
			c4.6-0.9,5.3-2.5,4.2-4C62,86.7,18.4,75,14.8,74.1c-0.1,0-0.2,0-0.2-0.1l0,0L0,74z"/>
		<path class="st0" d="M0,74L0,74c2.1,1.2,9.7,1.7,13.3,1.8c1.8,0,2.4-1.4,1.5-1.7c-0.1,0-0.1,0-0.2-0.1l0,0L0,74L0,74z"/>
		<path class="st9" d="M13.3,75.8c1.8,0,2.4-1.4,1.5-1.7C18.4,75,62,86.7,63.2,88.2c1.2,1.5,0.5,3.1-4.2,4l-1.2-0.3l-5-2.7
			L13.3,75.8z"/>
	</g>
	<path class="st10" d="M201.4,131.8c-3.1,0-6-0.1-8.8-0.1l0,0.1c13.3,0.2,29.5,0.3,47.1,0.4l0-0.1
		C225.6,132.1,212.5,131.9,201.4,131.8 M196.5,118.5l-1.9,6.5l50.2,0.1l1.8-2.6l-29.7,1.7L196.5,118.5z M245.8,118.4
		c0.5,0.1,0.9,0.2,0.9,0.3c0.7,0.5,1.3,0.8,1.7,1.2l0.8-1.1L245.8,118.4z"/>
	<g>
		<path class="st11" d="M194.6,125l50.2,0.1l-5,7c-14.2-0.1-27.2-0.2-38.4-0.3c-3.1,0-6-0.1-8.8-0.1L194.6,125z"/>
		<path class="st12" d="M163.6,109.2l53.3,15.1l31.3-1.8l1.1-0.1c0.3-1.6-0.4-2.4-2.6-3.7c-1.3-0.8-60.6-11.3-62.4-11.3
			C176.2,107.4,163.6,109.2,163.6,109.2"/>
		<path class="st9" d="M184.4,107.4l0.7,1.6l61.7,13.5l1.4,0l1.1-0.1c0.3-1.6-0.4-2.4-2.6-3.7C245.5,117.9,186.1,107.4,184.4,107.4"
			/>
		<path class="st13" d="M236.8,123.1l-31.4-0.8c-0.4,0-0.8,0.1-1.2,0.2l-8.2,3.5c-0.4,0.2-0.3,0.8,0.1,0.8
			C229.5,129.8,236.4,124.2,236.8,123.1"/>
		<path class="st14" d="M234.4,121l-29.7-0.7c-0.4,0-0.7,0-1.1,0.2l-8,2.8c-0.3,0.1-0.2,0.5,0.1,0.5
			C226.3,126,233.6,121.7,234.4,121"/>
		<path class="st15" d="M219.3,118.7l-26.3-0.7c-0.4,0-0.7,0.1-1.1,0.2l-6.8,2.7c-0.3,0.1-0.3,0.6,0.1,0.7
			C190.2,121.9,217.4,122.4,219.3,118.7"/>
		<path class="st16" d="M226.2,120.1l-0.1,20.7c13.5,0.2,31.7-0.1,39.7-2c2-0.4,3.3-1,3.8-1.6l0.1-0.1l0-19.5
			c-1-0.6-2.3-1.2-3.9-1.6C257,113.6,239.5,114.7,226.2,120.1"/>
		<path class="st1" d="M226.2,120.1l-0.1,20.7c13.5,0.2,31.7-0.1,39.7-2c2-0.4,3.3-1,3.8-1.6L226.2,120.1z"/>
		<path class="st17" d="M265.9,116l-0.1,22.8c2.1-0.5,3.5-1,3.9-1.7l0-19.5C268.8,116.9,267.5,116.4,265.9,116"/>
	</g>
	<polygon class="st18" points="215.8,136.4 226.1,139.6 226.2,122.1 215.9,125.2 	"/>
	<polygon class="st18" points="207.1,132.3 215.8,134.6 215.9,127 207.1,129.3 	"/>
	<polygon class="st19" points="21.4,2 41.6,78.6 30.8,78.6 10.6,2 	"/>
	<g>
		<path class="st20" d="M169,78.4c-19.8,0.2-32.7,0.4-32.7,0.4l-3.2,0v0.8l6.3,6.1c12.1,0,24.6,0.1,37.3,0.1L169,78.4 M136.3,78.8
			L136.3,78.8 M181.6,106.4c-7,0.1-13.9,0.2-20.7,0.3l5.6,5.4h7.4l-10.3-2.9c0,0,10.1-1.4,18-1.7V106.4"/>
		<path class="st21" d="M133.1,77.9c1.2,0.3,2.3,0.6,3.2,0.9l-3.2,0V77.9z"/>
		<path class="st22" d="M181.3,96.2L181.3,96.2l0.3,0v0.3l-0.2,0h0c-0.7,0-1.3,0.6-1.3,1.3l0,2.5c0,0.7,0.6,1.3,1.3,1.3l0.2,0v0.3
			l-0.3,0c-0.8,0-1.5-0.7-1.5-1.5l0-2.8C179.8,96.8,180.5,96.2,181.3,96.2"/>
		<path class="st23" d="M181.4,96.5L181.4,96.5l0.2,0v5.1l-0.2,0c-0.7,0-1.3-0.6-1.3-1.3l0-2.5C180.1,97.1,180.7,96.5,181.4,96.5"/>
		<path class="st22" d="M174.3,96.1c-0.8,0-1.5,0.7-1.5,1.5l0,2.8c0,0.8,0.7,1.5,1.5,1.5l1.2,0h0c0.8,0,1.5-0.7,1.5-1.5l0-2.8
			c0-0.8-0.7-1.5-1.5-1.5L174.3,96.1C174.3,96.1,174.3,96.1,174.3,96.1 M175.4,101.6L175.4,101.6l-1.1,0c-0.7,0-1.3-0.6-1.3-1.3
			l0-2.5c0-0.7,0.6-1.3,1.3-1.3h0l1.1,0c0.7,0,1.3,0.6,1.3,1.3l0,2.5C176.7,101,176.1,101.6,175.4,101.6"/>
		<path class="st23" d="M174.3,96.5L174.3,96.5l1.1,0c0.7,0,1.3,0.6,1.3,1.3l0,2.5c0,0.7-0.6,1.3-1.3,1.3h0l-1.1,0
			c-0.7,0-1.3-0.6-1.3-1.3l0-2.5C173,97,173.6,96.5,174.3,96.5"/>
		<path class="st22" d="M167.2,96.1c-0.8,0-1.5,0.7-1.5,1.5l0,2.8c0,0.8,0.7,1.5,1.5,1.5l1.2,0h0c0.8,0,1.5-0.7,1.5-1.5l0-2.8
			c0-0.8-0.7-1.5-1.5-1.5L167.2,96.1C167.2,96.1,167.2,96.1,167.2,96.1 M168.3,101.5L168.3,101.5l-1.1,0c-0.7,0-1.3-0.6-1.3-1.3
			l0-2.5c0-0.7,0.6-1.3,1.3-1.3h0l1.1,0c0.7,0,1.3,0.6,1.3,1.3l0,2.5C169.7,101,169.1,101.5,168.3,101.5"/>
		<path class="st23" d="M167.3,96.4L167.3,96.4l1.1,0c0.7,0,1.3,0.6,1.3,1.3l0,2.5c0,0.7-0.6,1.3-1.3,1.3h0l-1.1,0
			c-0.7,0-1.3-0.6-1.3-1.3l0-2.5C165.9,97,166.5,96.4,167.3,96.4"/>
		<path class="st22" d="M160.1,96.1c-0.8,0-1.5,0.7-1.5,1.5l0,2.8c0,0.8,0.7,1.5,1.5,1.5l1.2,0h0c0.8,0,1.5-0.7,1.5-1.5l0-2.8
			c0-0.8-0.7-1.5-1.5-1.5L160.1,96.1L160.1,96.1 M161.3,101.5L161.3,101.5l-1.1,0c-0.7,0-1.3-0.6-1.3-1.3l0-2.5
			c0-0.7,0.6-1.3,1.3-1.3h0l1.1,0c0.7,0,1.3,0.6,1.3,1.3l0,2.5C162.6,100.9,162,101.5,161.3,101.5"/>
		<path class="st23" d="M160.2,96.4L160.2,96.4l1.1,0c0.7,0,1.3,0.6,1.3,1.3l0,2.5c0,0.7-0.6,1.3-1.3,1.3h0l-1.1,0
			c-0.7,0-1.3-0.6-1.3-1.3l0-2.5C158.9,97,159.5,96.4,160.2,96.4"/>
		<path class="st22" d="M153.1,96.1L153.1,96.1l1.2,0c0.8,0,1.5,0.7,1.5,1.5l0,2.8c0,0.4-0.1,0.7-0.4,0.9l-0.2-0.2
			c0.2-0.2,0.4-0.5,0.4-0.9l0-2.5c0-0.7-0.6-1.3-1.3-1.3l-1.1,0h0c-0.7,0-1.3,0.6-1.3,1.3l0,0.1l-0.2-0.2v0
			C151.6,96.8,152.2,96.1,153.1,96.1"/>
		<path class="st23" d="M153.1,96.4L153.1,96.4l1.1,0c0.7,0,1.3,0.6,1.3,1.3l0,2.5c0,0.3-0.1,0.6-0.4,0.9l-3.4-3.3l0-0.1
			C151.8,97,152.4,96.4,153.1,96.4"/>
		<path class="st24" d="M181.6,107.5v6.8v-2.2h-7.7l-10.3-2.9C163.6,109.2,173.7,107.8,181.6,107.5"/>
	</g>
	<polygon class="st20" points="7.3,2 22.6,61 22.6,61 	"/>
	<polygon class="st21" points="10.6,2 27.4,65.5 22.6,61 7.3,2 	"/>
	<g>
		<path class="st20" d="M40.8,78.6l0.9,0l13.8,0v6.8c-3.1-0.9-6.9-2-10.9-3.2L40.8,78.6z"/>
	</g>
	<g>
		<path class="st25" d="M55.5,92.5v0.3l-0.3-0.3C55.3,92.5,55.4,92.5,55.5,92.5"/>
		<path class="st20" d="M116.5,78.8l9.9,0l3.7,3.6v3.3c-2.2,0-4.3,0-6.5,0L116.5,78.8z"/>
		<path class="st21" d="M108.2,70.7c4.7,1.4,9.6,2.8,14.2,4.1l4.1,4l-9.9,0L108.2,70.7z"/>
		<path class="st20" d="M58.4,85.7c7.2,0,16,0,26.2,0c2.8,0,5.6,0,8.5,0c0.4-0.2,0.8-0.3,1.3-0.3h0l5.5,0c0.5,0,0.9,0.1,1.3,0.3
			c1.7,0,3.4,0,5.1,0l-7.2-7l-40.7-0.1V85.7z M128.4,107.2c-9.1,0.2-17.8,0.3-26,0.5l0,2.1c0,1-0.7,1.9-1.6,2.3h29.3v-3.2
			L128.4,107.2 M102.1,107.7c-3.4,0.1-6.7,0.1-9.9,0.2l0,1.9c0,1.2,1,2.1,2.2,2.2l5.5,0h0c1.2,0,2.2-1,2.2-2.1L102.1,107.7
			 M91.7,107.9c-7.4,0.2-14.2,0.3-20.3,0.5l3.9,3.8h18c-0.9-0.4-1.6-1.3-1.6-2.4L91.7,107.9"/>
	</g>
	<g>
		<path class="st23" d="M94.4,85.3c-0.5,0-0.9,0.1-1.3,0.3c-0.8,0.4-1.3,1.3-1.3,2.2l-0.1,20l0,1.9c0,1.1,0.7,2,1.6,2.4h7.6
			c0.9-0.4,1.6-1.3,1.6-2.3l0-2.1l0-19.8c0-0.9-0.5-1.8-1.3-2.2c-0.4-0.2-0.8-0.3-1.3-0.3L94.4,85.3L94.4,85.3 M102.1,109.8
			c0,1.2-1,2.1-2.2,2.1h0l-5.5,0c-1.2,0-2.2-1-2.2-2.2l0-1.9l0.1-20c0-1.2,1-2.1,2.2-2.1h0l5.5,0c1.2,0,2.2,1,2.2,2.2l-0.1,19.8
			L102.1,109.8z"/>
		<path class="st23" d="M63.7,89.4c0,0.9-0.9,1.8-3.3,2.4C60,92,59.5,92.1,59,92.2c-0.1,0-0.3,0.1-0.4,0.1c-0.1,0-0.1,0-0.2,0V92
			l0.6,0.2C62.4,91.5,63.7,90.5,63.7,89.4"/>
		<path class="st25" d="M21,89.3c0.4,0.1,0.9,0.2,1.3,0.2l0.3,0.3C22.1,89.6,21.6,89.5,21,89.3"/>
		<path class="st23" d="M0,74L0,74l6.4,0v0L0,74L0,74z"/>
		<path class="st20" d="M0.1,74l6.3,0l1.6,1.5C4.7,75.3,1.3,74.8,0.1,74C0,74,0,74,0.1,74L0.1,74L0.1,74L0.1,74z"/>
	</g>
	<g>
		<path class="st20" d="M133.1,85.7c0.2,0,0.3,0,0.5,0l-0.5-0.5V85.7z M155.2,106.8c-3.3,0.1-6.5,0.1-9.8,0.2l5.3,5.2h9.9
			L155.2,106.8"/>
		<path class="st22" d="M144.8,96.6l0.2,0.2c-0.2,0.2-0.3,0.5-0.3,0.8l0,2.5c0,0.7,0.6,1.3,1.3,1.3l1.1,0h0c0.7,0,1.3-0.6,1.3-1.3
			l0,0l0.2,0.2c0,0.8-0.7,1.4-1.5,1.4h0l-1.2,0c-0.8,0-1.5-0.7-1.5-1.5l0-2.8C144.5,97.2,144.6,96.9,144.8,96.6"/>
		<path class="st23" d="M145.1,96.9l3.4,3.3l0,0c0,0.7-0.6,1.3-1.3,1.3h0l-1.1,0c-0.7,0-1.3-0.6-1.3-1.3l0-2.5
			C144.7,97.4,144.8,97.1,145.1,96.9"/>
		<path class="st22" d="M138.9,96.1C138.9,96.1,138.9,96.1,138.9,96.1l1.2,0c0.8,0,1.5,0.7,1.5,1.5l0,2.8c0,0.8-0.6,1.4-1.4,1.5
			l-0.3-0.3l0.2,0h0c0.7,0,1.3-0.6,1.3-1.3l0-2.5c0-0.7-0.6-1.3-1.3-1.3l-1.1,0h0c-0.7,0-1.3,0.6-1.3,1.3l0,1.6l-0.2-0.2l0-1.5
			C137.4,96.7,138.1,96.1,138.9,96.1"/>
		<path class="st23" d="M139,96.4L139,96.4l1.1,0c0.7,0,1.3,0.6,1.3,1.3l0,2.5c0,0.7-0.6,1.3-1.3,1.3h0l-0.2,0l-2.2-2.2l0-1.6
			C137.7,97,138.3,96.4,139,96.4"/>
	</g>
	<polygon class="st20" points="133.1,111.7 133.5,112.1 133.1,112.1 	"/>
	<polygon class="st26" points="20.2,2 21.8,3.6 41.6,78.6 40.8,78.6 27.4,65.5 10.6,2 	"/>
	<polygon class="st27" points="126.5,78.8 130.2,78.8 130.2,82.4 	"/>
	<g>
		<path class="st27" d="M133.1,85.2l0.5,0.5c1.9,0,3.9,0,5.8,0l-6.3-6.1V85.2z M160.9,106.7c-1.9,0-3.8,0.1-5.7,0.1l5.5,5.3h5.8
			L160.9,106.7"/>
		<path class="st28" d="M151.6,97.6l0.2,0.2l0,2.4c0,0.7,0.6,1.3,1.3,1.3l1.1,0h0c0.4,0,0.7-0.2,1-0.4l0.2,0.2
			c-0.3,0.3-0.7,0.5-1.2,0.5h0l-1.2,0c-0.8,0-1.5-0.7-1.5-1.5L151.6,97.6z"/>
		<path class="st29" d="M151.8,97.8l3.4,3.3c-0.2,0.3-0.6,0.4-1,0.4h0l-1.1,0c-0.7,0-1.3-0.6-1.3-1.3L151.8,97.8z"/>
		<path class="st28" d="M146,96.1C146,96.1,146,96.1,146,96.1l1.2,0c0.8,0,1.5,0.7,1.5,1.5l0,2.8c0,0,0,0,0,0.1l-0.2-0.2l0-2.5
			c0-0.7-0.6-1.3-1.3-1.3l-1.1,0h0c-0.4,0-0.8,0.2-1,0.5l-0.2-0.2C145.1,96.3,145.5,96.1,146,96.1"/>
		<path class="st29" d="M146.1,96.4L146.1,96.4l1.1,0c0.7,0,1.3,0.6,1.3,1.3l0,2.5l-3.4-3.3C145.3,96.6,145.7,96.4,146.1,96.4"/>
		<path class="st27" d="M181.6,78.3v7.5c-1.6,0-3.3,0-5,0l-7.6-7.4C173,78.4,177.2,78.4,181.6,78.3"/>
	</g>
	<g>
		<path class="st20" d="M45.6,112.1h9.9v-1.9c-1.4-0.4-2.9-0.9-4.3-1.3c-0.8-0.3-1.7-0.5-2.5-0.8c0,0,0,0,0,0c-0.1,0-0.1,0-0.2-0.1
			c0,0,0,0-0.1,0c0,0-0.1,0-0.1,0c0,0-0.1,0-0.1,0c0,0-0.1,0-0.1,0c-3.4-1.1-6.8-2.2-10.2-3.3L45.6,112.1z"/>
		<path class="st27" d="M26.9,77.4L26.9,77.4L22.6,61l0,0L26.9,77.4z M31.3,78.6c4.3,1.2,8.9,2.5,13.3,3.7l-3.8-3.7l-4.4,0
			L31.3,78.6 M37.9,104.6c3.4,1.1,6.8,2.2,10.2,3.3C44.7,106.9,41.3,105.8,37.9,104.6L37.9,104.6z M48.2,108c0,0,0.1,0,0.1,0
			C48.3,108,48.2,108,48.2,108 M48.5,108C48.5,108,48.5,108.1,48.5,108C48.5,108.1,48.5,108,48.5,108 M48.7,108.1
			C48.7,108.1,48.7,108.1,48.7,108.1C48.7,108.1,48.7,108.1,48.7,108.1 M55.5,108.8c-1.5,0-3,0.1-4.3,0.1c1.4,0.4,2.9,0.9,4.3,1.3
			V108.8"/>
		<path class="st30" d="M31.3,78.6l5.1,0L31.3,78.6L31.3,78.6z"/>
		<path class="st31" d="M48.1,107.9C48.1,107.9,48.2,108,48.1,107.9C48.2,108,48.1,107.9,48.1,107.9 M48.3,108c0,0,0.1,0,0.1,0
			C48.4,108,48.4,108,48.3,108 M48.5,108.1c0.1,0,0.1,0,0.2,0.1C48.6,108.1,48.6,108.1,48.5,108.1 M48.7,108.1
			c0.8,0.3,1.7,0.5,2.5,0.8C50.4,108.6,49.5,108.4,48.7,108.1"/>
		<path class="st27" d="M6.4,74l8.3,0l0,0c0.1,0,0.1,0,0.2,0.1c0.4,0.2,0.5,0.6,0.2,1c0,0,0,0,0,0c0,0,0,0,0,0
			c-0.3,0.4-0.8,0.7-1.7,0.7c0,0,0,0-0.1,0c-1.4,0-3.4-0.1-5.4-0.3L6.4,74z"/>
		<path class="st32" d="M58.4,111.1c1.1,0.3,2.2,0.7,3.2,1h-3.2V111.1z"/>
	</g>
	<polygon class="st32" points="27.4,65.5 40.8,78.6 36.4,78.6 31.3,78.6 30.8,78.6 30.8,78.4 	"/>
	<g>
		<path class="st27" d="M86.9,63.9C86.9,63.9,86.9,63.9,86.9,63.9C86.9,63.9,86.9,63.9,86.9,63.9 M106.3,85.7c5.6,0,11.4,0,17.4,0
			l-7.2-7l-17.4,0L106.3,85.7z M130.2,107.2c-0.6,0-1.2,0-1.7,0l1.7,1.7V107.2"/>
		<path class="st28" d="M124.8,96c-0.8,0-1.5,0.7-1.5,1.5l0,2.8c0,0.8,0.7,1.5,1.5,1.5l1.2,0h0c0.8,0,1.5-0.7,1.5-1.5l0-2.8
			c0-0.8-0.7-1.5-1.5-1.5L124.8,96L124.8,96 M125.9,101.4L125.9,101.4l-1.1,0c-0.7,0-1.3-0.6-1.3-1.3l0-2.5c0-0.7,0.6-1.3,1.3-1.3h0
			l1.1,0c0.7,0,1.3,0.6,1.3,1.3l0,2.5C127.3,100.9,126.7,101.4,125.9,101.4"/>
		<path class="st29" d="M124.9,96.3L124.9,96.3l1.1,0c0.7,0,1.3,0.6,1.3,1.3l0,2.5c0,0.7-0.6,1.3-1.3,1.3h0l-1.1,0
			c-0.7,0-1.3-0.6-1.3-1.3l0-2.5C123.5,96.9,124.1,96.3,124.9,96.3"/>
		<path class="st27" d="M145.5,106.9l5.3,5.2h-17.3l-0.4-0.4v-4.6C137.2,107,141.3,107,145.5,106.9"/>
		<path class="st28" d="M137.4,99.1l0.2,0.2l0,0.9c0,0.7,0.6,1.3,1.3,1.3l0.9,0l0.3,0.3c0,0-0.1,0-0.1,0h0l-1.2,0
			c-0.8,0-1.5-0.7-1.5-1.5L137.4,99.1z"/>
		<path class="st29" d="M137.7,99.3l2.2,2.2l-0.9,0c-0.7,0-1.3-0.6-1.3-1.3L137.7,99.3z"/>
		<path class="st28" d="M133.1,96c0.8,0,1.5,0.7,1.5,1.5l0,2.8c0,0.8-0.7,1.4-1.5,1.5v-0.3c0.7,0,1.2-0.6,1.2-1.3l0-2.5
			c0-0.7-0.6-1.3-1.3-1.3V96z"/>
		<path class="st29" d="M133.1,96.4c0.7,0,1.3,0.6,1.3,1.3l0,2.5c0,0.7-0.6,1.2-1.2,1.3V96.4z"/>
	</g>
	<polygon class="st32" points="21.4,2 21.8,3.6 20.2,2 	"/>
</g>
</svg>
